<svg xmlns:dc="http://purl.org/dc/elements/1.1/" xmlns:cc="http://creativecommons.org/ns#" xmlns:rdf="http://www.w3.org/1999/02/22-rdf-syntax-ns#" xmlns:svg="http://www.w3.org/2000/svg" xmlns="http://www.w3.org/2000/svg" viewBox="0 0 480 480" fill="none"><metadata><rdf:RDF><cc:Work><dc:format>image/svg+xml</dc:format><dc:type rdf:resource="http://purl.org/dc/dcmitype/StillImage"/><dc:title>Custom Avatar</dc:title><dc:creator><cc:Agent><dc:title>Ashley Seo</dc:title></cc:Agent></dc:creator><dc:source>https://www.figma.com/community/file/881358461963645496</dc:source><cc:license rdf:resource="https://creativecommons.org/licenses/by/4.0/"/></cc:Work><cc:License rdf:about="https://creativecommons.org/licenses/by/4.0/"><cc:permits rdf:resource="https://creativecommons.org/ns#Reproduction"/><cc:permits rdf:resource="https://creativecommons.org/ns#Distribution"/><cc:permits rdf:resource="https://creativecommons.org/ns#DerivativeWorks"/><cc:requires rdf:resource="https://creativecommons.org/ns#Notice"/><cc:requires rdf:resource="https://creativecommons.org/ns#Attribution"/></cc:License></rdf:RDF></metadata><mask id="avatarsRadiusMask"><rect width="480" height="480" rx="0" ry="0" x="0" y="0" fill="#fff"/></mask><g mask="url(#avatarsRadiusMask)"><g transform="matrix(.85775 0 0 .85427 52 47)"><path d="M263.989 38.62s131.387 20.593 121.424 208.128c-.036.695 15.192 10.822 16.384 11.904 10.619 9.62 19.527 21.94 23.423 36.351 13.872 51.319-35.724 104.196-75.83 118.231-14.981 5.242-30.815 7.787-46.681 8.249-103.139 3.009-239.69-62.655-246.703-190.893a172.056 172.056 0 0 1-.195-13.802c.621-24.349 6.488-48.063 15.33-70.082-.004.001 57.398-142.617 192.848-108.085Z" fill="rgba(164, 117, 57, 1)"/><path d="M388.739 248.727c-1.423 3.492-2.844 7.955-3.241 10.507-1.694 10.947 2.045 22.252 8.54 30.378 6.168 7.716 14.976 12.72 23.506 14.607 2.88.637 6.367.964 9.416 1.067-3.204-31.703-28.973-50.725-38.221-56.559ZM203.534 332.051c24.406-5.26 39.558-31.017 33.844-57.531-5.714-26.514-30.13-43.744-54.535-38.484-24.405 5.259-39.558 31.016-33.844 57.53 5.714 26.514 30.13 43.744 54.535 38.485Z" fill="#DC2400" style="mix-blend-mode:multiply" opacity=".1"/><path opacity=".1" d="M323.014 257.889s20.842-19.864 36.977-1.188Z" fill="#000"/><g><path d="M128.679 356.869c-69.38 34.83-132.35-52.512-112.18-101.609 12.866-31.317 50.38-33.752 72.118-5.146 12.829 16.883 23.209 38.464 29.103 59.108" fill="rgba(164, 117, 57, 1)"/><path opacity=".1" d="M71.534 278.927c8.927 9.099 16.103 22.593 24.923 30.12-1.63-12.595-4.232-26.045-10.34-37.396-6.201-11.528-17.479-21.025-28.962-20.242-14.23.971-25.947 17.573-27.454 32.626.9-9.008 18.99-15.104 25.894-14.251 10.812 20.413 14.998 60.644 14.998 60.644 9.007-22.775 5.36-40.689.941-51.501Z" fill="#000"/></g></g><g transform="matrix(.85472 0 0 .855 19 -17)"><path d="M393.348 366.944c3.015 1.731 24.097-24.743 38.134-16.689 4.739 2.719 8.354 7.356 11.069 12.367 5.966 11.023 8.007 24.415 5.604 36.769-3.401 17.468-15.188 31.769-29.053 41.248-37.308 25.5-66.905 20.68-106.724 5.918-31.343-11.617-74.048-35.531-65.201-78.677 15.573-75.95 146.132-.958 146.171-.936Z" fill="#873C41"/><g fill="#fff"><path d="M318.892 366.521c-11.072 2.51-23.417 1.861-33.556-4.433-8.783-5.452-13.467-14.387-14.362-24.587 26.295-10.346 67.328 3.627 94.526 15.632L352.5 392c-12.847-2.11-25.973-9.366-29.261-22.14-.527-2.043-2.229-3.821-4.347-3.339ZM420.542 349.573C424.297 364.286 414.784 384.48 401 392c-13.936 8.746-31.337 6.972-37.5 1.803l11.17-36.467c11.36 5.401 18.668 9.597 18.677 9.603 2.292 1.319 15.046-13.655 27.195-17.366Z"/></g><path d="M400.293 443.788c-21.923-20.117-48.878-31.353-76.209-39.326-23.378-6.821-49.7-11.241-73.362-4.473 10.965 23.534 39.18 38.231 61.656 46.564 34.832 12.911 61.843 18.215 93.031 2.275-1.699-1.685-3.356-3.424-5.116-5.04Z" fill="#EE7E8B"/></g><g transform="matrix(.85472 0 0 .855 19 -17)"><g fill="#2A1200"><path d="M401.884 284.77c3.898 1.79 9.27 3.915 14.555 5.154 1.59 3.122 2.498 6.841 2.489 10.269-.021 7.961-3.658 16.513-12.951 15.536-7.8-.82-9.785-10.978-9.772-15.979.016-6.111 2.179-11.988 5.679-14.98ZM296.2 292.531a30.443 30.443 0 0 0-.596 6.017c-.033 12.455 6.185 18.988 15.53 21.465 12.984 1.968 19.243-7.675 19.273-19.552.018-6.902-2.871-13.713-7.379-18.203-5.602 4.286-14.434 8.704-26.828 10.273Z"/></g><g fill="#71472D"><path d="M324.846 237.734c-13.715 2.017-26.145 11.324-32.392 24.184-2.014 4.146-1.067 10.067 3.235 12.662 3.977 2.403 9.612 1.736 11.766-2.707a38.274 38.274 0 0 1 2.14-3.864c.245-.386 1.016-1.177 1.177-1.684.128-.159.254-.317.387-.473a37.43 37.43 0 0 1 2.595-2.773 38.507 38.507 0 0 1 1.601-1.454c.173-.147.347-.29.525-.435.523-.272 1.065-.774 1.527-1.073a35.646 35.646 0 0 1 5.197-2.775c.161-.069.32-.134.483-.2.64-.199 1.274-.414 1.923-.591a36.248 36.248 0 0 1 4.203-.865c4.433-.651 7.487-6.186 6.167-10.783-1.46-5.057-5.785-7.866-10.534-7.169ZM425.206 260.439c-3.136-7.848-9.111-13.991-16.426-17.189-1.975-.862-4.58-.682-6.536.285-1.927.953-3.861 3.003-4.564 5.196-.729 2.277-.902 4.876.082 7.061.997 2.216 2.538 3.853 4.681 4.793.351.153.681.347 1.026.519a22.652 22.652 0 0 1 2.784 2.161 23.752 23.752 0 0 1 2.572 3.485c.229.478.482.944.682 1.441.861 2.148 2.65 3.977 4.681 4.793 1.944.781 4.613.769 6.536-.288 1.992-1.095 3.813-2.85 4.565-5.196.75-2.338.827-4.788-.083-7.061Z"/></g></g><g transform="matrix(.85472 0 0 .85667 18 -15)"><g fill="rgba(35, 141, 128, 1)"><path d="M274 104c88.8 2.4 132.5 65.5 141 98.5-55-8.667-191.546-34.459-210 15.5-41 111-15 243 0 297-55.2 4-123.667-15.667-151-26-5.5-6.5-1.724 18.963-10-104-14-208 102-250.5 140-267.5 30.4-13.6 73-16.167 90-13.5ZM438.5 486.5c-2.8-5.2-2.833-23.5-2.5-32-24.8 22.4-50.667 32.667-60.5 35 19.2 2.4 50-1 63-3Z"/></g><mask id="hairBangs-a" style="mask-type:alpha" maskUnits="userSpaceOnUse" x="42" y="103" width="397" height="413"><g fill="#2A1200"><path d="M274 104c88.8 2.4 125 57 132 84-55-8.667-182.546-19.959-201 30-41 111-15 243 0 297-55.2 4-123.667-15.667-151-26-5.5-6.5-1.724 18.963-10-104-14-208 102-250.5 140-267.5 30.4-13.6 73-16.167 90-13.5ZM438.5 486.5c-2.8-5.2-2.833-23.5-2.5-32-24.8 22.4-50.667 32.667-60.5 35 19.2 2.4 50-1 63-3Z"/></g></mask><g mask="url(#hairBangs-a)"><path d="M303.032 146.226s-12.295-3.681-26.51 7.568c0 0 6.905-12.81 14.277-16.653 0 0-28.055-1.676-49.946 25.328 0 0 10.575-26.439 27.121-34.816 0 0-21.064 3.521-30.336 12.022 0 0 1.479-15.613 12.403-22.267 0 0-18.339-9.491-34.69-5.635 0 0 31.365-9.761 41.865-8.816 19.673-3.587 46.362 6.308 46.362 6.308-6.509.351-13.619 5.975-13.619 5.975 17.198-.5 35.808 7.344 35.808 7.344-8.662-.194-15.011 5.908-15.011 5.908 19.252 4.015 32.866 16.595 32.866 16.595-4.703-3.758-19.84-2.166-19.84-2.166 9.55 4.988 18.765 17.022 18.765 17.022l-17.495-6.138s-8.695 28.627-12.393 33.973c0 0 4.644-24.516 1.118-31.972 0 0-17.924 20.014-33.671 33.73.002-.012 12.171-34.327 22.926-43.31Z" fill="#000" fill-opacity=".15"/></g><path d="M286.759 270.913c74.148 1.174 126.389-9.788 143.241-15.415-2.407-38.171-27.852-112.149-115-114.498-87.148-2.349-133.364 74.37-145 114.498 25.037 13.506 80.448 14.681 105.324 15.415l7.222-32.298 4.213 32.298Z" fill="rgba(35, 141, 128, 1)"/><g fill="#000" fill-opacity=".15"><path d="M193 172c-20 58.333-51.4 204-17 320-27.667-64.333-63-218.4 17-320ZM108 302c0-57.6 40-121.333 60-146-104.8 48-96.333 176.667-79 235-15.2-88.8 10.333-146.333 25-164-8 24.8-7.333 60.333-6 75ZM347 164c17.333 8.667 52.4 37.2 54 82 3.333-24.667-2.8-75.6-54-82ZM284 172c-6 10.333-17.8 36.8-17 60-5.333-11.333-9.4-39.2 17-60Z"/></g></g><g transform="matrix(.85472 0 0 .85667 14 -12)"><path d="M258.843 292.134c3.704 15.828 11.171 30.272 24.278 35.244 29 11 71 3 77-3.5 2.122-2.299 5.056-10.411 7.698-20.381 17.08-9.597 31.813-4.398 36.709-1.033 1.264 7.779 2.622 13.965 3.623 15.81 3.046 5.612 24.364 12.518 39.083 3.022 14.72-9.497 15.227-66.905 12.436-72.948-3.395-7.348-55.67-3.848-57.864 9.927-1.482 4.203-.739 17.205.765 30.089-7.998-2.667-19.114-3.787-31.38.477 2.912-14.796 4.326-29.637 1.43-34.463C367.5 237 261 229.5 258.621 242.878c-2.543 6.958-3.729 21.602-1.924 36.885-43.616-5.56-115.271-14.567-131.069-16.23-5.974-.629-16.759.869-25.836 6.158-4.647 2.707-9.095 6.553-12.136 11.882-3.079 5.395-4.502 11.943-3.616 19.615l11.92-1.376c-.614-5.328.4-9.28 2.118-12.291 1.756-3.077 4.464-5.544 7.755-7.462 6.798-3.961 15.013-4.963 18.539-4.592 16.087 1.693 91.272 11.153 134.471 16.667Z" fill="#595757" style="mix-blend-mode:multiply"/><g style="mix-blend-mode:screen" opacity=".2"><mask id="accessoriesSunglasses-a" style="mask-type:alpha" maskUnits="userSpaceOnUse" x="83" y="236" width="378" height="97"><path d="M258.561 290.605C262.17 307.578 269.785 323.414 284 328c31 10 70.121 2.299 76.121-4.409 2.165-2.42 5.356-10.984 8.152-21.459 16.919-9.604 31.431-4.248 36.227-.815 1.272 8.11 2.642 14.574 3.651 16.492 3.046 5.791 24.364 12.918 39.083 3.118 14.72-9.8 15.227-69.044 12.436-75.281-13.028-4.454-40.606-7.572-57.864 10.246-1.489 4.358-.732 17.882.787 31.24-7.916-2.716-18.871-3.875-30.963.329 2.877-15.061 3.945-30.188-.13-35.461C358 238 283 231 259 241c-2.513 3.301-4.295 19.559-2.39 37.245-43.626-5.739-115.175-15.02-130.962-16.735-6.019-.654-16.837.904-25.927 6.37-4.658 2.801-9.087 6.762-12.105 12.22-3.048 5.513-4.455 12.195-3.579 20.033l11.926-1.333c-.624-5.577.407-9.732 2.155-12.893 1.779-3.218 4.506-5.771 7.786-7.743 6.785-4.08 14.967-5.102 18.448-4.724 16.053 1.744 90.968 11.47 134.209 17.165Z" fill="#595757" style="mix-blend-mode:multiply"/></mask><g mask="url(#accessoriesSunglasses-a)" fill="#fff"><path d="m303.819 223.625-65.717 90.892 18.021 13.756L340.725 221l-36.906 2.625ZM344.247 235.347l-77.3 96.032 2.949 22.336 94.919-111.375-20.568-6.993ZM474.801 231.607l-77.3 96.032 2.95 22.336L495.37 238.6l-20.569-6.993Z"/></g></g></g></g></svg>