<svg xmlns:dc="http://purl.org/dc/elements/1.1/" xmlns:cc="http://creativecommons.org/ns#" xmlns:rdf="http://www.w3.org/1999/02/22-rdf-syntax-ns#" xmlns:svg="http://www.w3.org/2000/svg" xmlns="http://www.w3.org/2000/svg" viewBox="0 0 480 480" fill="none"><metadata><rdf:RDF><cc:Work><dc:format>image/svg+xml</dc:format><dc:type rdf:resource="http://purl.org/dc/dcmitype/StillImage"/><dc:title>Custom Avatar</dc:title><dc:creator><cc:Agent><dc:title>Ashley Seo</dc:title></cc:Agent></dc:creator><dc:source>https://www.figma.com/community/file/881358461963645496</dc:source><cc:license rdf:resource="https://creativecommons.org/licenses/by/4.0/"/></cc:Work><cc:License rdf:about="https://creativecommons.org/licenses/by/4.0/"><cc:permits rdf:resource="https://creativecommons.org/ns#Reproduction"/><cc:permits rdf:resource="https://creativecommons.org/ns#Distribution"/><cc:permits rdf:resource="https://creativecommons.org/ns#DerivativeWorks"/><cc:requires rdf:resource="https://creativecommons.org/ns#Notice"/><cc:requires rdf:resource="https://creativecommons.org/ns#Attribution"/></cc:License></rdf:RDF></metadata><mask id="avatarsRadiusMask"><rect width="480" height="480" rx="0" ry="0" x="0" y="0" fill="#fff"/></mask><g mask="url(#avatarsRadiusMask)"><g transform="matrix(.85775 0 0 .85427 52 47)"><path d="M263.989 38.62s131.387 20.593 121.424 208.128c-.036.695 15.192 10.822 16.384 11.904 10.619 9.62 19.527 21.94 23.423 36.351 13.872 51.319-35.724 104.196-75.83 118.231-14.981 5.242-30.815 7.787-46.681 8.249-103.139 3.009-239.69-62.655-246.703-190.893a172.056 172.056 0 0 1-.195-13.802c.621-24.349 6.488-48.063 15.33-70.082-.004.001 57.398-142.617 192.848-108.085Z" fill="rgba(255, 228, 192, 1)"/><path d="M388.739 248.727c-1.423 3.492-2.844 7.955-3.241 10.507-1.694 10.947 2.045 22.252 8.54 30.378 6.168 7.716 14.976 12.72 23.506 14.607 2.88.637 6.367.964 9.416 1.067-3.204-31.703-28.973-50.725-38.221-56.559ZM203.534 332.051c24.406-5.26 39.558-31.017 33.844-57.531-5.714-26.514-30.13-43.744-54.535-38.484-24.405 5.259-39.558 31.016-33.844 57.53 5.714 26.514 30.13 43.744 54.535 38.485Z" fill="#DC2400" style="mix-blend-mode:multiply" opacity=".1"/><path opacity=".1" d="M323.014 257.889s20.842-19.864 36.977-1.188Z" fill="#000"/><g><path d="M128.679 356.869c-69.38 34.83-132.35-52.512-112.18-101.609 12.866-31.317 50.38-33.752 72.118-5.146 12.829 16.883 23.209 38.464 29.103 59.108" fill="rgba(255, 228, 192, 1)"/><path opacity=".1" d="M71.534 278.927c8.927 9.099 16.103 22.593 24.923 30.12-1.63-12.595-4.232-26.045-10.34-37.396-6.201-11.528-17.479-21.025-28.962-20.242-14.23.971-25.947 17.573-27.454 32.626.9-9.008 18.99-15.104 25.894-14.251 10.812 20.413 14.998 60.644 14.998 60.644 9.007-22.775 5.36-40.689.941-51.501Z" fill="#000"/></g></g><g transform="matrix(.85472 0 0 .855 19 -17)"><path d="M393.348 366.944c3.015 1.731 24.097-24.743 38.134-16.689 4.739 2.719 8.354 7.356 11.069 12.367 5.966 11.023 8.007 24.415 5.604 36.769-3.401 17.468-15.188 31.769-29.053 41.248-37.308 25.5-66.905 20.68-106.724 5.918-31.343-11.617-74.048-35.531-65.201-78.677 15.573-75.95 146.131-.958 146.171-.936Z" fill="#873C41"/><path d="M285.336 362.088c10.139 6.294 22.484 6.943 33.556 4.433 2.118-.482 3.82 1.296 4.347 3.339 5.406 21.004 36.059 31.967 51.431 18.499 1.193-1.046 3.309-1.293 4.559-.108 8.296 7.871 21.589 10.006 31.351 4.682 13.784-7.52 13.717-28.647 9.962-43.36-12.149 3.711-24.903 18.686-27.195 17.366-.03-.019-80.177-46.04-122.373-29.438.895 10.2 5.579 19.135 14.362 24.587Z" fill="#fff"/><path d="M400.293 443.788c-21.923-20.117-48.878-31.353-76.209-39.326-23.378-6.821-49.7-11.241-73.362-4.473 10.965 23.534 39.18 38.231 61.655 46.564 34.833 12.911 61.844 18.215 93.032 2.275-1.699-1.685-3.356-3.424-5.116-5.04Z" fill="#EE7E8B"/><mask id="mouthBraces-a" style="mask-type:alpha" maskUnits="userSpaceOnUse" x="245" y="333" width="205" height="126"><path d="M393.348 366.944c3.015 1.731 24.097-24.743 38.134-16.689 4.739 2.719 8.354 7.356 11.069 12.367 5.966 11.023 8.007 24.415 5.604 36.769-3.401 17.468-15.188 31.769-29.053 41.248-37.308 25.5-66.905 20.68-106.724 5.918-31.344-11.617-74.049-35.531-65.201-78.677 15.573-75.95 146.131-.958 146.171-.936Z" fill="#873C41"/></mask><g mask="url(#mouthBraces-a)"><path fill-rule="evenodd" clip-rule="evenodd" d="M272.844 332.044a1.5 1.5 0 0 1 2.112-.2c2.284 1.891 6.653 4.45 11.565 7.084 4.421 2.371 9.169 4.742 13.005 6.658l1.145.572c15.445 7.723 39.245 15.91 51.669 20.184l2.149.74c14.464 4.987 32.248 10.41 51.467 10.418 2.765-.164 4.757-.406 6.887-1.006 2.156-.608 4.515-1.6 7.986-3.336a1.501 1.501 0 0 1 1.342 2.684c-3.529 1.764-6.087 2.855-8.514 3.539-2.442.689-4.69.947-7.569 1.116a1.293 1.293 0 0 1-.088.003c-19.765 0-37.964-5.573-52.489-10.582l-2.178-.75c-12.392-4.262-36.369-12.509-52.004-20.326l-1.146-.573c-3.831-1.914-8.617-4.305-13.079-6.697-4.88-2.616-9.511-5.307-12.06-7.416a1.5 1.5 0 0 1-.2-2.112Z" fill="#C4C4C4"/><rect x="399.664" y="372" width="12" height="12" rx="2" transform="rotate(3.17 399.664 372)" fill="#A09E9E"/><rect x="349.106" y="361" width="12" height="12" rx="2" transform="rotate(15 349.106 361)" fill="#A09E9E"/><rect x="297.326" y="340" width="12" height="12" rx="2" transform="rotate(26.352 297.326 340)" fill="#A09E9E"/></g></g><g transform="matrix(.85472 0 0 .855 19 -17)"><g fill="#2A1200"><path d="M330.178 300.479c-.023 11.876-6.228 21.515-19.112 19.539-9.274-2.483-15.448-9.019-15.424-21.474.026-13.049 7.627-21.517 15.508-21.532 10.534-.02 19.051 11.591 19.028 23.467ZM396.385 292.992c5.657.333 13.447-.258 18.677-3.883 1.872 3.289 2.958 7.397 2.951 11.155-.015 7.961-3.619 16.509-12.842 15.527-7.739-.825-9.715-10.983-9.705-15.984.005-2.358.326-4.68.919-6.815Z"/></g><g fill="#71472D"><path d="M332.006 238.124c-13.75-1.763-28.233 3.84-37.721 14.534-3.059 3.448-3.747 9.405-.305 13.066 3.179 3.387 8.785 4.267 12.059.572a38.045 38.045 0 0 1 3.104-3.142c.341-.306 1.296-.86 1.588-1.304.167-.118.33-.237.501-.351a37.654 37.654 0 0 1 3.247-1.969 37.51 37.51 0 0 1 1.935-.967c.206-.095.412-.186.622-.278.578-.12 1.235-.457 1.76-.62a35.838 35.838 0 0 1 5.755-1.268c.173-.023.344-.042.518-.062.67-.019 1.339-.054 2.011-.05 1.431.011 2.858.123 4.281.302 4.443.572 8.88-3.933 8.85-8.715-.039-5.264-3.445-9.137-8.205-9.748ZM419.494 276.074c-7.428 4.032-15.949 4.938-23.619 2.723-2.07-.598-3.959-2.401-4.845-4.396-.873-1.964-1.051-4.777-.19-6.913.894-2.217 2.422-4.326 4.575-5.378 2.183-1.068 4.415-1.342 6.664-.696.368.107.745.169 1.12.257 1.167.132 2.339.167 3.523.117a23.824 23.824 0 0 0 4.205-1.037c.482-.221.974-.418 1.446-.673 2.034-1.102 4.58-1.365 6.663-.695 1.994.641 4.04 2.356 4.843 4.399.833 2.114 1.112 4.628.191 6.913-.917 2.278-2.424 4.211-4.576 5.379Z"/></g></g><g transform="matrix(.85472 0 0 .85667 18 -15)"><path d="M440 102.837c-74-50.667-244.4-113.6-334 40l28.183 31.941C117.263 197.215 109.022 216.7 108.5 218c-8.842 22.018-11.961 46.275-12.583 70.624-.118 4.596-.056 9.202.195 13.803 38.09 6.472 56.129 47.303 60.388 66.91 0 0 11.333.666 14-1.5 14-7.334 38.9-37.4 26.5-99-6-28-2-50.294 47-85 20.571-14.571 46.253-19.198 70.312-18.702a1221.56 1221.56 0 0 0-8.312-.298c7.5.25 14.281.5 20.68.953-.786-.056-1.577-.108-2.375-.158 29.154 2.281 54.352 11.426 62.695 18.205 12.8 10.4 18.935 14.333 20.403 15-5.568-12.637-12.065-23.502-19.04-32.838 7.872-19.038 21.93-44.533 40.706-57.416 3.484-2.39 7.131-4.346 10.931-5.746Z" fill="rgba(35, 141, 128, 1)"/><path d="M106 142.837c89.6-153.6 260-90.667 334-40-20.081-13.75-115.5-40.5-159-18.5l.389.67C198.414 67.006 130.262 115.501 106 142.837Z" fill="#fff" fill-opacity=".2"/><path d="M440 102.837c-30.4 11.2-51 58-57 78-28.5-14-47-15-77-16 4-32.8-17.667-67.834-25-80.5 43.5-22 138.919 4.75 159 18.5Z" fill="#000" fill-opacity=".1"/><g fill="#fff" fill-opacity=".7"><path d="M306.177 163.217c-.729-11.968-40.65-41.148-81.177-36.38-54.121 6.367-86.5 45-89 50l-1.817-2.059C117.263 197.215 109.022 216.7 108.5 218c-8.842 22.018-11.961 46.275-12.583 70.624-.118 4.596-.056 9.202.195 13.803 38.09 6.472 56.129 47.303 60.388 66.91 0 0 11.333.666 14-1.5 14-7.334 38.9-37.4 26.5-99-6-28-2-50.294 47-85 20.571-14.571 46.253-19.198 70.313-18.702-2.679-.107-5.443-.203-8.313-.298.066-.54.125-1.08.177-1.62ZM324.305 165.632c29.154 2.281 54.352 11.426 62.695 18.205 12.8 10.4 18.935 14.333 20.403 15-5.568-12.637-12.065-23.502-19.04-32.838-2.331 5.638-4.12 10.71-5.328 14.72l-.035.118c-21.375-10.5-37.125-13.688-56.32-15.047-.786-.056-1.577-.108-2.375-.158Z"/></g></g><g transform="matrix(.85472 0 0 .85667 14 -12)"><path d="M192.247 102.862c11.166-17.088 55.767 14.712 77.251 33.085-29.211-1.83-45.2 37.231-50.404 56.335-9.22 9.038-24.507 10.684-30.717 10.695-3.363-26.251-7.297-83.027 3.87-100.115Z" fill="#A09B9B"/><mask id="accessoriesCatEars-a" style="mask-type:alpha" maskUnits="userSpaceOnUse" x="184" y="97" width="86" height="106"><path d="M192.247 102.862c11.166-17.088 55.767 14.712 77.251 33.085-29.211-1.83-45.2 37.231-50.404 56.335-9.22 9.038-24.507 10.684-30.717 10.695-3.363-26.251-7.297-83.027 3.87-100.115Z" fill="#A09B9B"/></mask><g fill="#C4C4C4" mask="url(#accessoriesCatEars-a)"><path d="M185.817 198.849c7.707-2.885 17.455-6.087 21.366-7.328l-25.057-8.913 3.691 16.241ZM179.496 172.988l-.585-10.759 17.89 6.221-17.305 4.538Z"/></g><path d="M269.498 135.947c-28.495 9.753-45.45 41.221-50.366 55.737-22.294-27.839-33.659-76.627-22.059-89.121 9.28-9.995 52.15 18.092 72.425 33.384Z" fill="#FEB3A4"/><g><mask id="accessoriesCatEars-b" style="mask-type:alpha" maskUnits="userSpaceOnUse" x="192" y="100" width="78" height="92"><path d="M269.498 135.947c-28.495 9.753-45.45 41.221-50.366 55.737-22.294-27.839-33.659-76.627-22.059-89.121 9.28-9.995 52.15 18.092 72.425 33.384Z" fill="#FEB3A4"/></mask><g mask="url(#accessoriesCatEars-b)"><path d="M233.434 126.476c-21.13-.363-17.591 44.169-13.18 66.48l55.193-56.035c-5.2-3.331-20.882-10.083-42.013-10.445Z" fill="#FFE7E2"/></g></g><g><mask id="accessoriesCatEars-c" style="mask-type:alpha" maskUnits="userSpaceOnUse" x="336" y="102" width="90" height="80"><path d="M407 182c-17.5-32.5-45-56.5-70.5-68.5l42-11.5 47.5 12.5-19 67.5Z" fill="#C4C4C4"/></mask><g mask="url(#accessoriesCatEars-c)"><path d="M387.523 106.854c13.339.49 14.327 38.367 13.207 57.709-10.576-17.987-37.303-13.45-49.343-9.678-8.363-2.225-15.258-10.704-17.716-14.384 12.392-11.42 40.512-34.137 53.852-33.647Z" fill="#A09B9B"/><mask id="accessoriesCatEars-d" style="mask-type:alpha" maskUnits="userSpaceOnUse" x="333" y="106" width="69" height="59"><path d="M387.523 106.854c13.339.49 14.327 38.367 13.207 57.709-10.576-17.987-37.303-13.45-49.343-9.678-8.363-2.225-15.258-10.704-17.716-14.384 12.392-11.42 40.512-34.137 53.852-33.647Z" fill="#A09B9B"/></mask><g fill="#C4C4C4" mask="url(#accessoriesCatEars-d)"><path d="M334.818 137.5c4.55 3.536 10.072 8.17 12.265 10.045l-5.234-18.066-7.031 8.021ZM345.838 124.466l5.392-4.21 3.812 12.847-9.204-8.637Z"/></g><path d="M401 172.5c-16.347-13.404-39.758-20.102-49.285-17.808 5.748-23.22 26.759-47.478 37.869-45.082 8.887 1.917 11.404 45.371 11.416 62.89Z" fill="#FEB3A4"/><g><mask id="accessoriesCatEars-e" style="mask-type:alpha" maskUnits="userSpaceOnUse" x="351" y="109" width="50" height="65"><path d="M401 174c-16.347-13.404-39.758-21.602-49.285-19.308 5.748-23.22 26.76-47.478 37.869-45.082 8.887 1.917 11.404 46.871 11.416 64.39Z" fill="#FEB3A4"/></mask><g mask="url(#accessoriesCatEars-e)"><path d="M392.319 141.259c-9.42-14.822-30.917 3.911-40.488 15.129l54.172 17.894c-.636-4.832-4.264-18.201-13.684-33.023Z" fill="#FFE7E2"/></g></g></g></g></g></g></svg>