<svg xmlns:dc="http://purl.org/dc/elements/1.1/" xmlns:cc="http://creativecommons.org/ns#" xmlns:rdf="http://www.w3.org/1999/02/22-rdf-syntax-ns#" xmlns:svg="http://www.w3.org/2000/svg" xmlns="http://www.w3.org/2000/svg" viewBox="0 0 480 480" fill="none"><metadata><rdf:RDF><cc:Work><dc:format>image/svg+xml</dc:format><dc:type rdf:resource="http://purl.org/dc/dcmitype/StillImage"/><dc:title>Custom Avatar</dc:title><dc:creator><cc:Agent><dc:title>Ashley Seo</dc:title></cc:Agent></dc:creator><dc:source>https://www.figma.com/community/file/881358461963645496</dc:source><cc:license rdf:resource="https://creativecommons.org/licenses/by/4.0/"/></cc:Work><cc:License rdf:about="https://creativecommons.org/licenses/by/4.0/"><cc:permits rdf:resource="https://creativecommons.org/ns#Reproduction"/><cc:permits rdf:resource="https://creativecommons.org/ns#Distribution"/><cc:permits rdf:resource="https://creativecommons.org/ns#DerivativeWorks"/><cc:requires rdf:resource="https://creativecommons.org/ns#Notice"/><cc:requires rdf:resource="https://creativecommons.org/ns#Attribution"/></cc:License></rdf:RDF></metadata><mask id="avatarsRadiusMask"><rect width="480" height="480" rx="0" ry="0" x="0" y="0" fill="#fff"/></mask><g mask="url(#avatarsRadiusMask)"><g transform="matrix(.85775 0 0 .85427 52 47)"><path d="M263.989 38.62s131.387 20.593 121.424 208.128c-.036.695 15.192 10.822 16.384 11.904 10.619 9.62 19.527 21.94 23.423 36.351 13.872 51.319-35.724 104.196-75.83 118.231-14.981 5.242-30.815 7.787-46.681 8.249-103.139 3.009-239.69-62.655-246.703-190.893a172.056 172.056 0 0 1-.195-13.802c.621-24.349 6.488-48.063 15.33-70.082-.004.001 57.398-142.617 192.848-108.085Z" fill="rgba(164, 117, 57, 1)"/><path d="M388.739 248.727c-1.423 3.492-2.844 7.955-3.241 10.507-1.694 10.947 2.045 22.252 8.54 30.378 6.168 7.716 14.976 12.72 23.506 14.607 2.88.637 6.367.964 9.416 1.067-3.204-31.703-28.973-50.725-38.221-56.559ZM203.534 332.051c24.406-5.26 39.558-31.017 33.844-57.531-5.714-26.514-30.13-43.744-54.535-38.484-24.405 5.259-39.558 31.016-33.844 57.53 5.714 26.514 30.13 43.744 54.535 38.485Z" fill="#DC2400" style="mix-blend-mode:multiply" opacity=".1"/><path opacity=".1" d="M323.014 257.889s20.842-19.864 36.977-1.188Z" fill="#000"/><g><path d="M128.679 356.869c-69.38 34.83-132.35-52.512-112.18-101.609 12.866-31.317 50.38-33.752 72.118-5.146 12.829 16.883 23.209 38.464 29.103 59.108" fill="rgba(164, 117, 57, 1)"/><path opacity=".1" d="M71.534 278.927c8.927 9.099 16.103 22.593 24.923 30.12-1.63-12.595-4.232-26.045-10.34-37.396-6.201-11.528-17.479-21.025-28.962-20.242-14.23.971-25.947 17.573-27.454 32.626.9-9.008 18.99-15.104 25.894-14.251 10.812 20.413 14.998 60.644 14.998 60.644 9.007-22.775 5.36-40.689.941-51.501Z" fill="#000"/></g></g><g transform="matrix(.85472 0 0 .855 19 -17)"><path d="M393.348 366.944c3.015 1.731 24.097-24.743 38.134-16.689 4.739 2.719 8.354 7.356 11.069 12.367 5.966 11.023 8.007 24.415 5.604 36.769-3.401 17.468-15.188 31.769-29.053 41.248-37.308 25.5-66.905 20.68-106.724 5.918-31.343-11.617-74.048-35.531-65.201-78.677 15.573-75.95 146.132-.958 146.171-.936Z" fill="#873C41"/><g fill="#fff"><path d="M318.892 366.521c-11.072 2.51-23.417 1.861-33.556-4.433-8.783-5.452-13.467-14.387-14.362-24.587 26.295-10.346 67.328 3.627 94.526 15.632L352.5 392c-12.847-2.11-25.973-9.366-29.261-22.14-.527-2.043-2.229-3.821-4.347-3.339ZM420.542 349.573C424.297 364.286 414.784 384.48 401 392c-13.936 8.746-31.337 6.972-37.5 1.803l11.17-36.467c11.36 5.401 18.668 9.597 18.677 9.603 2.292 1.319 15.046-13.655 27.195-17.366Z"/></g><path d="M400.293 443.788c-21.923-20.117-48.878-31.353-76.209-39.326-23.378-6.821-49.7-11.241-73.362-4.473 10.965 23.534 39.18 38.231 61.656 46.564 34.832 12.911 61.843 18.215 93.031 2.275-1.699-1.685-3.356-3.424-5.116-5.04Z" fill="#EE7E8B"/></g><g transform="matrix(.85472 0 0 .855 19 -17)"><g fill="#2A1200"><path d="M331.178 300.479c-.023 11.876-6.228 21.515-19.112 19.539-9.274-2.483-15.448-9.019-15.424-21.474.026-13.049 7.627-21.517 15.508-21.532 10.534-.02 19.051 11.591 19.028 23.467ZM419.013 300.265c-.015 7.96-3.619 16.509-12.842 15.526-7.739-.824-9.715-10.983-9.705-15.984.017-8.747 4.4-17.011 10.795-17.023 6.877-.013 11.768 9.52 11.752 17.481Z"/></g><g fill="#71472D"><path d="M336.947 244.202c-12.423-6.152-27.941-5.58-40.399 1.435-4.016 2.262-6.61 7.668-4.551 12.251 1.901 4.239 6.913 6.9 11.213 4.474a38.291 38.291 0 0 1 3.96-1.957c.422-.178 1.506-.39 1.926-.714.197-.058.389-.116.588-.169a37.477 37.477 0 0 1 3.712-.802 38.115 38.115 0 0 1 2.144-.283c.226-.023.451-.041.679-.059.586.074 1.317-.03 1.866-.012a35.827 35.827 0 0 1 5.853.678c.172.035.34.072.511.111.64.2 1.283.385 1.917.609a36.411 36.411 0 0 1 3.948 1.682c4.014 1.989 9.677-.822 11.21-5.352 1.68-4.989-.277-9.761-4.577-11.892ZM423.529 248.526c-7.428-4.032-15.949-4.938-23.619-2.723-2.07.598-3.959 2.401-4.845 4.395-.874 1.964-1.051 4.777-.191 6.913.895 2.218 2.423 4.327 4.576 5.379 2.183 1.067 4.415 1.342 6.664.696.368-.107.745-.169 1.12-.257a22.487 22.487 0 0 1 3.523-.117c1.422.215 2.822.561 4.205 1.037.482.221.974.418 1.446.672 2.034 1.103 4.58 1.366 6.663.696 1.994-.642 4.04-2.356 4.843-4.399.833-2.115 1.112-4.629.191-6.913-.917-2.278-2.424-4.212-4.576-5.379Z"/></g></g><g transform="matrix(.85472 0 0 .85667 18 -15)"><path d="M412.723 124.708c20.133-6.007 26.461 19.947 27.333 37.181.058 1.161.092 2.286.104 3.36.221 20.128-6.673 42.169-24.47 51.328-.226.118-4.084-4.079-6.399-6.598-.884-.962-1.543-1.679-1.689-1.818-7.367-6.987-15.384-13.185-23.811-18.572-26.269-16.795-55.864-24.44-86.257-22.549-36.206 2.254-75.793 11.839-103.068 36.737-26.832 24.494-43.372 66.485-42.479 106.709.024 1.052.119 2.723.236 4.784.564 9.919 1.644 28.896-2.223 31.73l-.604.302c-.42.32-1.127.863-2.381 1.848-3.084 2.259-6.571-3.874-11.292-12.175-5.659-9.953-13.091-23.022-23.723-28.475-8.667-4.833-30.6-9.1-49 10.5-2.07-9.402-3.027-16.062-3.47-21.608l-.048.108-.03-1.155a122.44 122.44 0 0 1-.28-6.923c-.018.162-.023.712-.023.712v-.129c-.002-.814 0-1.628.005-2.441-.005-1.019-.005-2.035-.005-3.064-.017-10.832.527-16.353 1.578-26.937l.058-.581c3.773-38.025 15.158-75.559 37.15-105.843 22.412-30.87 56.807-52.344 90.818-65.067a200.3 200.3 0 0 1 10.893-3.727c34.132-10.583 71.077-11.549 105.03-.308 23.276 7.703 44.637 20.907 64.545 36.233 1.34-1.796 2.926-3.442 4.845-4.788 8.319-5.827 21.036-2.091 25.698 7.318 1.682 3.392 3.025 6.828 3.948 10.274 2.379-3.001 5.48-5.314 9.011-6.366Z" fill="rgba(96, 93, 228, 1)"/><path d="M304.676 82.041c23.276 7.704 44.637 20.908 64.545 36.234 1.031-1.388 2.266-2.63 3.635-3.755-2.721 3.097-4.862 7.115-6.665 10.941-8.035-6.792-18.151-10.528-28.302-7.418-9.712 2.979-16.569 11.2-20.693 20.84-23.163-13.925-47.955-19.234-76.406-13.875-34.066 6.416-63.836 30.076-83.607 60.433-26.619 40.876-26.921 118.253-6.875 161.124-.484.458 0 0-3.293 2.585-6.782 4.969-15.515-30.65-35.015-40.65-8.667-4.833-30.6-9.1-49 10.5-3.851-17.5-3.851-25.5-3.851-34.5-.017-10.884.532-16.405 1.593-27.088l.043-.426c3.773-38.024 15.158-75.558 37.15-105.843 22.412-30.869 56.807-52.343 90.818-65.066a200.507 200.507 0 0 1 10.893-3.727c34.132-10.583 71.077-11.549 105.03-.309Z" fill="#000" fill-opacity=".05"/></g><g transform="matrix(.85472 0 0 .85667 14 -12)"><path d="M148 160c101.868-11.2 202.992 37.833 229.48 60.5 9.575-11.2 25.372-24.667 36.382-26 2.681 6 7.021 21 8.138 24.5-16.085 0-33.509 19.833-42.126 33.5-66.874-58-160.09-58-254.874-58 8.617-19.5 15.979-27.833 23-34.5Z" fill="#FFC00C"/><mask id="accessoriesSailormoonCrown-a" style="mask-type:alpha" maskUnits="userSpaceOnUse" x="125" y="158" width="297" height="95"><path d="M148.5 160.5c101.868-11.2 202.492 37.333 228.98 60 9.575-11.2 25.372-24.667 36.382-26 2.681 6 7.021 21 8.138 24.5-16.085 0-33.509 19.833-42.126 33.5C304 190 218.5 197.5 125 194.5c8.617-19.5 16.479-27.333 23.5-34Z" fill="#FFC00C"/></mask><g fill="#FFD45B" mask="url(#accessoriesSailormoonCrown-a)"><path d="m343.971 240.5 22.381-36.621-6.068-9.44L333.918 232l10.053 8.5ZM388.491 246.5l28.243-55.5 13.883 3.439L396.15 249l-7.659-2.5ZM327.275 225.777 353.066 191l-4.93-2.981-25.033 33.784 4.172 3.974ZM275.995 215l30.637-36.5-14.361-7-35.903 41 19.627 2.5Z"/></g><g><ellipse cx="378.155" cy="232.5" rx="8.813" ry="13.5" fill="#FF3C15"/><mask id="accessoriesSailormoonCrown-b" style="mask-type:alpha" maskUnits="userSpaceOnUse" x="369" y="219" width="18" height="27"><ellipse cx="378.155" cy="232.5" rx="8.813" ry="13.5" fill="#FF3C15"/></mask><g mask="url(#accessoriesSailormoonCrown-b)"><path d="M388.142 226.977c-4.23 11.291-13.12 15.75-17.037 16.568 1.175 1.841 4.935 5.155 10.575 3.682 5.64-1.472 6.658-14.113 6.462-20.25Z" fill="#CB1414"/><ellipse rx="2.951" ry="4.888" transform="matrix(.94302 .33275 -.30774 .95147 375.98 225.86)" fill="#FF7256"/></g></g></g></g></svg>