<svg xmlns:dc="http://purl.org/dc/elements/1.1/" xmlns:cc="http://creativecommons.org/ns#" xmlns:rdf="http://www.w3.org/1999/02/22-rdf-syntax-ns#" xmlns:svg="http://www.w3.org/2000/svg" xmlns="http://www.w3.org/2000/svg" viewBox="0 0 480 480" fill="none"><metadata><rdf:RDF><cc:Work><dc:format>image/svg+xml</dc:format><dc:type rdf:resource="http://purl.org/dc/dcmitype/StillImage"/><dc:title>Custom Avatar</dc:title><dc:creator><cc:Agent><dc:title>Ashley Seo</dc:title></cc:Agent></dc:creator><dc:source>https://www.figma.com/community/file/881358461963645496</dc:source><cc:license rdf:resource="https://creativecommons.org/licenses/by/4.0/"/></cc:Work><cc:License rdf:about="https://creativecommons.org/licenses/by/4.0/"><cc:permits rdf:resource="https://creativecommons.org/ns#Reproduction"/><cc:permits rdf:resource="https://creativecommons.org/ns#Distribution"/><cc:permits rdf:resource="https://creativecommons.org/ns#DerivativeWorks"/><cc:requires rdf:resource="https://creativecommons.org/ns#Notice"/><cc:requires rdf:resource="https://creativecommons.org/ns#Attribution"/></cc:License></rdf:RDF></metadata><mask id="avatarsRadiusMask"><rect width="480" height="480" rx="0" ry="0" x="0" y="0" fill="#fff"/></mask><g mask="url(#avatarsRadiusMask)"><g transform="matrix(.85775 0 0 .85427 52 47)"><path d="M263.989 38.62s131.387 20.593 121.424 208.128c-.036.695 15.192 10.822 16.384 11.904 10.619 9.62 19.527 21.94 23.423 36.351 13.872 51.319-35.724 104.196-75.83 118.231-14.981 5.242-30.815 7.787-46.681 8.249-103.139 3.009-239.69-62.655-246.703-190.893a172.056 172.056 0 0 1-.195-13.802c.621-24.349 6.488-48.063 15.33-70.082-.004.001 57.398-142.617 192.848-108.085Z" fill="rgba(201, 156, 98, 1)"/><path d="M388.739 248.727c-1.423 3.492-2.844 7.955-3.241 10.507-1.694 10.947 2.045 22.252 8.54 30.378 6.168 7.716 14.976 12.72 23.506 14.607 2.88.637 6.367.964 9.416 1.067-3.204-31.703-28.973-50.725-38.221-56.559ZM203.534 332.051c24.406-5.26 39.558-31.017 33.844-57.531-5.714-26.514-30.13-43.744-54.535-38.484-24.405 5.259-39.558 31.016-33.844 57.53 5.714 26.514 30.13 43.744 54.535 38.485Z" fill="#DC2400" style="mix-blend-mode:multiply" opacity=".1"/><path opacity=".1" d="M323.014 257.889s20.842-19.864 36.977-1.188Z" fill="#000"/><g><path d="M128.679 356.869c-69.38 34.83-132.35-52.512-112.18-101.609 12.866-31.317 50.38-33.752 72.118-5.146 12.829 16.883 23.209 38.464 29.103 59.108" fill="rgba(201, 156, 98, 1)"/><path opacity=".1" d="M71.534 278.927c8.927 9.099 16.103 22.593 24.923 30.12-1.63-12.595-4.232-26.045-10.34-37.396-6.201-11.528-17.479-21.025-28.962-20.242-14.23.971-25.947 17.573-27.454 32.626.9-9.008 18.99-15.104 25.894-14.251 10.812 20.413 14.998 60.644 14.998 60.644 9.007-22.775 5.36-40.689.941-51.501Z" fill="#000"/></g></g><g transform="matrix(.85472 0 0 .855 19 -17)"><path d="M393.348 366.944c3.015 1.731 24.097-24.743 38.134-16.689 4.739 2.719 8.354 7.356 11.069 12.367 5.966 11.023 8.007 24.415 5.604 36.769-3.401 17.468-15.188 31.769-29.053 41.248-37.308 25.5-66.905 20.68-106.724 5.918-31.343-11.617-74.048-35.531-65.201-78.677 15.573-75.95 146.132-.958 146.171-.936Z" fill="#873C41"/><g fill="#fff"><path d="M318.892 366.521c-11.072 2.51-23.417 1.861-33.556-4.433-8.783-5.452-13.467-14.387-14.362-24.587 26.295-10.346 67.328 3.627 94.526 15.632L352.5 392c-12.847-2.11-25.973-9.366-29.261-22.14-.527-2.043-2.229-3.821-4.347-3.339ZM420.542 349.573C424.297 364.286 414.784 384.48 401 392c-13.936 8.746-31.337 6.972-37.5 1.803l11.17-36.467c11.36 5.401 18.668 9.597 18.677 9.603 2.292 1.319 15.046-13.655 27.195-17.366Z"/></g><path d="M400.293 443.788c-21.923-20.117-48.878-31.353-76.209-39.326-23.378-6.821-49.7-11.241-73.362-4.473 10.965 23.534 39.18 38.231 61.656 46.564 34.832 12.911 61.843 18.215 93.031 2.275-1.699-1.685-3.356-3.424-5.116-5.04Z" fill="#EE7E8B"/></g><g transform="matrix(.85472 0 0 .855 19 -17)"><path d="M342.942 294.416c-.028 14.765-9.33 26.753-28.656 24.303-13.912-3.083-21.268-8.824-21.238-24.309.032-16.225 7.727-26.989 21.342-29.163 20.886-3.334 28.581 14.403 28.552 29.169ZM419.173 290.886c-.019 11.773-4.834 24.417-17.16 22.966-10.344-1.218-12.986-16.241-12.974-23.637.021-12.937 5.877-25.159 14.423-25.179 9.191-.021 15.73 14.077 15.711 25.85Z" fill="#2A1200"/><path d="M402.178 273.964c.257-.995 1.631-1.076 1.915-.114l2.627 8.888a.945.945 0 0 0 1.06.668l5.024-.771c.82-.125 1.384.75.955 1.48l-4.184 7.115a1.026 1.026 0 0 0-.105.813l2.583 8.743c.295.997-.952 1.782-1.672 1.052l-3.651-3.701c-.408-.413-1.095-.362-1.477.11l-5.609 6.928c-.622.768-1.819.327-1.75-.645l.736-10.31a.973.973 0 0 0-.272-.754l-5.548-5.623c-.569-.577-.207-1.595.613-1.721l5.169-.792c.41-.063.75-.373.855-.781l2.731-10.585ZM318.019 272.679c.339-.828 1.511-.829 1.851-.002l4.736 11.519a.999.999 0 0 0 1.052.612l9.659-1.237c.915-.117 1.487.962.877 1.653l-7.205 8.167a.998.998 0 0 0-.175 1.041l4.462 10.852c.376.916-.663 1.763-1.484 1.21l-8.383-5.651a1 1 0 0 0-1.201.063l-11.529 9.659c-.701.587-1.757.004-1.633-.902l1.679-12.339a.999.999 0 0 0-.432-.964l-9.03-6.087c-.765-.515-.483-1.704.432-1.821l9.842-1.26a.999.999 0 0 0 .798-.614l5.684-13.899Z" fill="#fff"/><g fill="#71472D"><path d="M331.172 233.546c-13.289-3.949-28.483-.745-39.566 8.287-3.573 2.912-5.209 8.68-2.401 12.846 2.594 3.855 7.986 5.624 11.811 2.502a38.29 38.29 0 0 1 3.569-2.602c.385-.247 1.418-.641 1.777-1.032.184-.09.364-.18.551-.266a37.327 37.327 0 0 1 3.521-1.422 38.14 38.14 0 0 1 2.064-.644c.219-.06.438-.117.66-.173.59-.027 1.292-.254 1.837-.33a35.797 35.797 0 0 1 5.883-.327c.175.005.346.013.521.022.665.089 1.33.161 1.994.274 1.41.241 2.8.58 4.176.986 4.294 1.278 9.396-2.456 10.136-7.181.807-5.202-1.933-9.571-6.533-10.94ZM422.688 243.735c-6.462-5.448-14.625-8.054-22.584-7.432-2.148.168-4.362 1.554-5.632 3.328-1.252 1.747-1.993 4.467-1.581 6.733.429 2.352 1.5 4.726 3.397 6.191 1.923 1.485 4.053 2.205 6.386 2.025.382-.03.764-.015 1.149-.025a22.67 22.67 0 0 1 3.474.595 23.87 23.87 0 0 1 3.91 1.864c.427.314.87.606 1.28.951 1.77 1.49 4.21 2.261 6.386 2.025 2.083-.226 4.432-1.493 5.631-3.332 1.242-1.903 2.022-4.309 1.581-6.732-.439-2.416-1.524-4.614-3.397-6.191Z"/></g></g><g transform="matrix(.85472 0 0 .85667 18 -15)"><g fill="rgba(96, 93, 228, 1)"><path d="M351 167c-32.5 45-106 137.5-207 170.5-6.833-11.667-19-23.9-41-23.5-27.5.5-37.5 20.5-37.5 20.5s-32 53.5 42 87.5c20.5 4 27 4 43.5-3 11.167 8.667 46.6 38.2 59 43-3.167 16.833-8.758 58.8-1.158 78-14.5 1.333-49.842 8.7-77.842-6.5-2.819-17.123-5.299-39.546-.885-48.095-5.269 8.61-14.773 28.264-14.773 39.595-16-5.5-51.6-20.8-66-38C27.01 382 19 127.5 245 106c19.833-2.333 70.4-.3 104 22.5C391 157 412 195 420 233c-17.167-8-55-32.4-69-66ZM433.5 525c-6.8-9.6-2.833-53.167 0-68-28 23.5-44.5 35-102 36.5 10 15 49 20.5 53.5 22.5l8-5.5v8c10.8 3.6 31.5 5.833 40.5 6.5Z"/></g><mask id="hairStraightHair-a" style="mask-type:alpha" maskUnits="userSpaceOnUse" x="245" y="105" width="176" height="128"><path d="M346.501 127.5c-33.6-22.8-81.667-23.833-101.501-21.5 5.477 29.667 22.372 92.8 69 108 13.672-17.718 29.992-34.209 37-47 14 33.6 51.834 58 69 66-8-38-31.499-77-73.499-105.5Z" fill="#E2BA87"/></mask><g mask="url(#hairStraightHair-a)"><path d="M338.932 161.814s-8.276-9.809-26.33-8.17c0 0 12.789-6.945 21.062-6.128 0 0-22.566-16.754-55.664-6.128 0 0 23.318-16.345 41.751-14.302 0 0-19.557-8.579-31.97-6.536 0 0 9.78-12.26 22.565-11.852 0 0-10.156-17.979-25.954-23.698 0 0 31.595 8.992 39.867 15.528 18.43 7.762 35.355 30.647 35.355 30.647-5.641-3.268-14.669-2.451-14.669-2.451 14.669 8.992 25.954 25.741 25.954 25.741-7.145-4.902-15.798-3.268-15.798-3.268 13.917 13.894 18.43 31.873 18.43 31.873-1.88-5.719-15.421-12.668-15.421-12.668 5.264 9.4 6.392 24.515 6.392 24.515l-11.285-14.711s-22.941 19.205-28.962 21.656c0 0 17.301-17.979 18.43-26.15 0 0-25.954 6.945-46.64 9.809.008-.009 28.97-22.073 42.887-23.707Z" fill="#000" fill-opacity=".15"/></g><g fill="#000" fill-opacity=".15"><path d="M281 211c-14 17.667-59.6 60.6-130 91 22.333-14 79.6-51.8 130-91ZM95 302c40.8-86.4 123.667-135.333 160-149-93.6 16-156 108.333-175.5 152.5 3.6-1.6 11.833-3 15.5-3.5ZM74 406.5c2 2.5 7.8 6.4 11 8-1.29 21.925-3.245 64.475-2.242 83.348.265 2.666.516 5.075.742 7.152-.337-1.626-.579-4.074-.742-7.152-1.882-18.939-4.46-50.816-3.758-68.348-3.667 13.333-9.9 17.8-5.5 73-4.667-35.667-11.9-74.4.5-96ZM408.5 476.5c2.8-1.2 7.5-4.5 9.5-6-3.6 6-2.167 36.167-1 50.5-2.4-2-4-9.5-4.5-13-1.6 5.2-4.667 5.5-4 13-4.4-10-.5-28.5 0-44.5ZM183.5 468.5c-4.8 43.6-2.5 55.5 1.5 74h-20c-7.2-35.2 11.167-52 18.5-74Z"/></g></g><g transform="matrix(.85472 0 0 .85667 14 -12)"/></g></svg>