<svg xmlns:dc="http://purl.org/dc/elements/1.1/" xmlns:cc="http://creativecommons.org/ns#" xmlns:rdf="http://www.w3.org/1999/02/22-rdf-syntax-ns#" xmlns:svg="http://www.w3.org/2000/svg" xmlns="http://www.w3.org/2000/svg" viewBox="0 0 480 480" fill="none"><metadata><rdf:RDF><cc:Work><dc:format>image/svg+xml</dc:format><dc:type rdf:resource="http://purl.org/dc/dcmitype/StillImage"/><dc:title>Custom Avatar</dc:title><dc:creator><cc:Agent><dc:title>Ashley Seo</dc:title></cc:Agent></dc:creator><dc:source>https://www.figma.com/community/file/881358461963645496</dc:source><cc:license rdf:resource="https://creativecommons.org/licenses/by/4.0/"/></cc:Work><cc:License rdf:about="https://creativecommons.org/licenses/by/4.0/"><cc:permits rdf:resource="https://creativecommons.org/ns#Reproduction"/><cc:permits rdf:resource="https://creativecommons.org/ns#Distribution"/><cc:permits rdf:resource="https://creativecommons.org/ns#DerivativeWorks"/><cc:requires rdf:resource="https://creativecommons.org/ns#Notice"/><cc:requires rdf:resource="https://creativecommons.org/ns#Attribution"/></cc:License></rdf:RDF></metadata><mask id="avatarsRadiusMask"><rect width="480" height="480" rx="0" ry="0" x="0" y="0" fill="#fff"/></mask><g mask="url(#avatarsRadiusMask)"><g transform="matrix(.85775 0 0 .85427 52 47)"><path d="M263.989 38.62s131.387 20.593 121.424 208.128c-.036.695 15.192 10.822 16.384 11.904 10.619 9.62 19.527 21.94 23.423 36.351 13.872 51.319-35.724 104.196-75.83 118.231-14.981 5.242-30.815 7.787-46.681 8.249-103.139 3.009-239.69-62.655-246.703-190.893a172.056 172.056 0 0 1-.195-13.802c.621-24.349 6.488-48.063 15.33-70.082-.004.001 57.398-142.617 192.848-108.085Z" fill="rgba(239, 204, 159, 1)"/><path d="M388.739 248.727c-1.423 3.492-2.844 7.955-3.241 10.507-1.694 10.947 2.045 22.252 8.54 30.378 6.168 7.716 14.976 12.72 23.506 14.607 2.88.637 6.367.964 9.416 1.067-3.204-31.703-28.973-50.725-38.221-56.559ZM203.534 332.051c24.406-5.26 39.558-31.017 33.844-57.531-5.714-26.514-30.13-43.744-54.535-38.484-24.405 5.259-39.558 31.016-33.844 57.53 5.714 26.514 30.13 43.744 54.535 38.485Z" fill="#DC2400" style="mix-blend-mode:multiply" opacity=".1"/><path opacity=".1" d="M323.014 257.889s20.842-19.864 36.977-1.188Z" fill="#000"/><g><path d="M128.679 356.869c-69.38 34.83-132.35-52.512-112.18-101.609 12.866-31.317 50.38-33.752 72.118-5.146 12.829 16.883 23.209 38.464 29.103 59.108" fill="rgba(239, 204, 159, 1)"/><path opacity=".1" d="M71.534 278.927c8.927 9.099 16.103 22.593 24.923 30.12-1.63-12.595-4.232-26.045-10.34-37.396-6.201-11.528-17.479-21.025-28.962-20.242-14.23.971-25.947 17.573-27.454 32.626.9-9.008 18.99-15.104 25.894-14.251 10.812 20.413 14.998 60.644 14.998 60.644 9.007-22.775 5.36-40.689.941-51.501Z" fill="#000"/></g></g><g transform="matrix(.85472 0 0 .855 19 -17)"><path fill-rule="evenodd" clip-rule="evenodd" d="M317 384a4 4 0 0 1 4-4h92a4 4 0 0 1 0 8h-92a4 4 0 0 1-4-4Z" fill="#592125"/></g><g transform="matrix(.85472 0 0 .855 19 -17)"><g fill="#2A1200"><path d="M331.178 300.479c-.023 11.876-6.228 21.515-19.112 19.539-9.274-2.483-15.448-9.019-15.424-21.474.026-13.049 7.627-21.517 15.508-21.532 10.534-.02 19.051 11.591 19.028 23.467ZM419.013 300.265c-.015 7.96-3.619 16.509-12.842 15.526-7.739-.824-9.715-10.983-9.705-15.984.017-8.747 4.4-17.011 10.795-17.023 6.877-.013 11.768 9.52 11.752 17.481Z"/></g><g fill="#71472D"><path d="M336.947 244.202c-12.423-6.152-27.941-5.58-40.399 1.435-4.016 2.262-6.61 7.668-4.551 12.251 1.901 4.239 6.913 6.9 11.213 4.474a38.291 38.291 0 0 1 3.96-1.957c.422-.178 1.506-.39 1.926-.714.197-.058.389-.116.588-.169a37.477 37.477 0 0 1 3.712-.802 38.115 38.115 0 0 1 2.144-.283c.226-.023.451-.041.679-.059.586.074 1.317-.03 1.866-.012a35.827 35.827 0 0 1 5.853.678c.172.035.34.072.511.111.64.2 1.283.385 1.917.609a36.411 36.411 0 0 1 3.948 1.682c4.014 1.989 9.677-.822 11.21-5.352 1.68-4.989-.277-9.761-4.577-11.892ZM423.529 248.526c-7.428-4.032-15.949-4.938-23.619-2.723-2.07.598-3.959 2.401-4.845 4.395-.874 1.964-1.051 4.777-.191 6.913.895 2.218 2.423 4.327 4.576 5.379 2.183 1.067 4.415 1.342 6.664.696.368-.107.745-.169 1.12-.257a22.487 22.487 0 0 1 3.523-.117c1.422.215 2.822.561 4.205 1.037.482.221.974.418 1.446.672 2.034 1.103 4.58 1.366 6.663.696 1.994-.642 4.04-2.356 4.843-4.399.833-2.115 1.112-4.629.191-6.913-.917-2.278-2.424-4.212-4.576-5.379Z"/></g></g><g transform="matrix(.85472 0 0 .85667 18 -15)"><path d="M179.263 164.822c-43.673 0-79.078-38.463-79.078-85.91C100.185 31.463 135.59-7 179.263-7c43.674 0 79.079 38.464 79.079 85.911 0 47.448-35.405 85.911-79.079 85.911Z" fill="rgba(34, 15, 0, 1)"/><path d="M179.263 164.822c-43.673 0-79.078-38.463-79.078-85.91 0-7.935.99-15.618 2.843-22.912 12.67 9.5 60.903 22.8 152.471 0a92.987 92.987 0 0 1 2.843 22.911c0 47.448-35.405 85.911-79.079 85.911Z" fill="#000" fill-opacity=".15"/><path d="M137.079 305.025c4.541-46.409 78.986-85.402 78.986-85.402-1.787 8.249-5.693 15.633-8.584 20.276-1.464 2.359-.008 5.548 2.604 5.75 69.981 5.46 160.179-70.154 160.179-70.154 18.991 24.515 41.067 58.488 52.279 69.873 1.597 1.621 4.125.303 4.064-2.069C422.43 83.021 267.985 51.188 163.397 86.417 67.68 118.658-11.923 243.712 54.459 335c3.666-11.667 17.6-34.3 44-31.5 4.333 1 15.9 6 27.5 18 1.734 1.858 16 7 11.12-16.475Z" fill="rgba(34, 15, 0, 1)"/><path opacity=".15" d="M355.983 157.107s-8.277-9.808-26.33-8.17c0 0 12.789-6.945 21.061-6.128 0 0-22.565-16.753-55.663-6.127 0 0 23.317-16.345 41.751-14.303 0 0-19.558-8.579-31.971-6.536 0 0 9.781-12.26 22.566-11.851 0 0-10.157-17.98-25.954-23.699 0 0 31.594 8.992 39.867 15.528 18.429 7.762 35.354 30.648 35.354 30.648-5.64-3.268-14.669-2.451-14.669-2.451 14.669 8.991 25.954 25.741 25.954 25.741-7.144-4.903-15.797-3.269-15.797-3.269 13.917 13.894 18.429 31.873 18.429 31.873-1.88-5.719-15.421-12.668-15.421-12.668 5.265 9.4 6.393 24.515 6.393 24.515l-11.285-14.711s-22.942 19.205-28.962 21.656c0 0 17.301-17.979 18.429-26.149 0 0-25.954 6.944-46.639 9.808.008-.008 28.97-22.073 42.887-23.707Z" fill="#000"/></g><g transform="matrix(.85472 0 0 .85667 14 -12)"/></g></svg>