<svg xmlns:dc="http://purl.org/dc/elements/1.1/" xmlns:cc="http://creativecommons.org/ns#" xmlns:rdf="http://www.w3.org/1999/02/22-rdf-syntax-ns#" xmlns:svg="http://www.w3.org/2000/svg" xmlns="http://www.w3.org/2000/svg" viewBox="0 0 480 480" fill="none"><metadata><rdf:RDF><cc:Work><dc:format>image/svg+xml</dc:format><dc:type rdf:resource="http://purl.org/dc/dcmitype/StillImage"/><dc:title>Custom Avatar</dc:title><dc:creator><cc:Agent><dc:title>Ashley Seo</dc:title></cc:Agent></dc:creator><dc:source>https://www.figma.com/community/file/881358461963645496</dc:source><cc:license rdf:resource="https://creativecommons.org/licenses/by/4.0/"/></cc:Work><cc:License rdf:about="https://creativecommons.org/licenses/by/4.0/"><cc:permits rdf:resource="https://creativecommons.org/ns#Reproduction"/><cc:permits rdf:resource="https://creativecommons.org/ns#Distribution"/><cc:permits rdf:resource="https://creativecommons.org/ns#DerivativeWorks"/><cc:requires rdf:resource="https://creativecommons.org/ns#Notice"/><cc:requires rdf:resource="https://creativecommons.org/ns#Attribution"/></cc:License></rdf:RDF></metadata><mask id="avatarsRadiusMask"><rect width="480" height="480" rx="0" ry="0" x="0" y="0" fill="#fff"/></mask><g mask="url(#avatarsRadiusMask)"><g transform="matrix(.85775 0 0 .85427 52 47)"><path d="M263.989 38.62s131.387 20.593 121.424 208.128c-.036.695 15.192 10.822 16.384 11.904 10.619 9.62 19.527 21.94 23.423 36.351 13.872 51.319-35.724 104.196-75.83 118.231-14.981 5.242-30.815 7.787-46.681 8.249-103.139 3.009-239.69-62.655-246.703-190.893a172.056 172.056 0 0 1-.195-13.802c.621-24.349 6.488-48.063 15.33-70.082-.004.001 57.398-142.617 192.848-108.085Z" fill="rgba(100, 61, 25, 1)"/><path d="M388.739 248.727c-1.423 3.492-2.844 7.955-3.241 10.507-1.694 10.947 2.045 22.252 8.54 30.378 6.168 7.716 14.976 12.72 23.506 14.607 2.88.637 6.367.964 9.416 1.067-3.204-31.703-28.973-50.725-38.221-56.559ZM203.534 332.051c24.406-5.26 39.558-31.017 33.844-57.531-5.714-26.514-30.13-43.744-54.535-38.484-24.405 5.259-39.558 31.016-33.844 57.53 5.714 26.514 30.13 43.744 54.535 38.485Z" fill="#DC2400" style="mix-blend-mode:multiply" opacity=".1"/><path opacity=".1" d="M323.014 257.889s20.842-19.864 36.977-1.188Z" fill="#000"/><g><path d="M128.679 356.869c-69.38 34.83-132.35-52.512-112.18-101.609 12.866-31.317 50.38-33.752 72.118-5.146 12.829 16.883 23.209 38.464 29.103 59.108" fill="rgba(100, 61, 25, 1)"/><path opacity=".1" d="M71.534 278.927c8.927 9.099 16.103 22.593 24.923 30.12-1.63-12.595-4.232-26.045-10.34-37.396-6.201-11.528-17.479-21.025-28.962-20.242-14.23.971-25.947 17.573-27.454 32.626.9-9.008 18.99-15.104 25.894-14.251 10.812 20.413 14.998 60.644 14.998 60.644 9.007-22.775 5.36-40.689.941-51.501Z" fill="#000"/></g></g><g transform="matrix(.85472 0 0 .855 19 -17)"><path d="M351.722 357.794c35.705 2.283 57.778 0 64.899 0 29.986-4.491 42.802 48.435 5.16 76.206-11.238 8.291-16.781 7-40.781 7-24.024 0-49.993 8.95-64.5 4.863-41.122-11.585-48.343-41.355-44.653-57.739 4.992-22.164 15.153-34.467 79.875-30.33Z" fill="#fff"/><mask id="mouthAwkwardSmile-a" style="mask-type:alpha" maskUnits="userSpaceOnUse" x="271" y="357" width="174" height="90"><path d="M351.722 357.794c35.705 2.283 57.778 0 64.899 0 29.986-4.491 42.802 48.435 5.16 76.206-11.238 8.291-16.781 7-40.781 7-24.024 0-49.993 8.95-64.5 4.863-41.122-11.585-48.343-41.355-44.653-57.739 4.992-22.164 15.153-34.467 79.875-30.33Z" fill="#fff"/></mask><g mask="url(#mouthAwkwardSmile-a)"><path fill-rule="evenodd" clip-rule="evenodd" d="m285.823 450.002 17.452-107.372 5.922.962-17.451 107.372-5.923-.962Zm77.403 14.257 4.276-109.584 5.996.234-4.277 109.584-5.995-.234Zm66.811-29.791-13.628-86.344 5.927-.935 13.627 86.343-5.926.936Z" fill="#D1D3D4"/></g></g><g transform="matrix(.85472 0 0 .855 19 -17)"><g fill="#2A1200"><path d="M396.994 294.274c4.349-1.505 11.31-4.375 16.906-8.085 3.125 3.488 5.041 9.094 5.032 14.082-.016 7.961-3.618 16.509-12.837 15.527-7.737-.825-9.712-10.984-9.703-15.985.004-1.895.212-3.768.602-5.539ZM301.243 283.111c-2.795 3.74-4.628 9.037-4.64 15.437-.024 12.454 6.147 18.991 15.419 21.474 12.879 1.976 19.082-7.663 19.104-19.538a25.997 25.997 0 0 0-.79-6.365c-6.582.059-17.564-2.203-29.093-11.008Z"/></g><g fill="#71472D"><path d="M332.093 270.313c-13.643 2.463-28.392-2.393-38.414-12.589-3.232-3.287-4.223-9.2-.973-13.032 3.002-3.546 8.555-4.711 12.014-1.188a38.215 38.215 0 0 0 3.261 2.98c.356.287 1.338.792 1.652 1.22.173.11.342.22.518.326a37.66 37.66 0 0 0 3.344 1.8c.654.31 1.314.596 1.981.867.211.084.422.165.636.245.584.091 1.257.394 1.79.53a35.823 35.823 0 0 0 5.811.972c.175.015.346.025.521.035.67-.015 1.34-.014 2.011-.052a36.64 36.64 0 0 0 4.26-.521c4.408-.798 9.069 3.474 9.284 8.252.23 5.259-2.974 9.301-7.696 10.155ZM421.666 261.428c-5.887 6.064-13.75 9.471-21.731 9.645-2.154.047-4.495-1.111-5.936-2.75-1.419-1.614-2.428-4.246-2.244-6.542.193-2.383 1.022-4.852 2.763-6.499 1.765-1.669 3.813-2.597 6.152-2.651.384-.008.762-.062 1.146-.089a22.682 22.682 0 0 0 3.398-.939 23.89 23.89 0 0 0 3.704-2.245c.394-.355.805-.689 1.179-1.073 1.613-1.659 3.964-2.67 6.153-2.652 2.095.018 4.559 1.044 5.934 2.754 1.427 1.77 2.442 4.086 2.245 6.542-.196 2.447-1.057 4.742-2.763 6.499Z"/></g></g><g transform="matrix(.85472 0 0 .85667 18 -15)"><path d="M440 102.837c-74-50.667-244.4-113.6-334 40l28.183 31.941C117.263 197.215 109.022 216.7 108.5 218c-8.842 22.018-11.961 46.275-12.583 70.624-.118 4.596-.056 9.202.195 13.803 38.09 6.472 56.129 47.303 60.388 66.91 0 0 11.333.666 14-1.5 14-7.334 38.9-37.4 26.5-99-6-28-2-50.294 47-85 20.571-14.571 46.253-19.198 70.312-18.702a1221.56 1221.56 0 0 0-8.312-.298c7.5.25 14.281.5 20.68.953-.786-.056-1.577-.108-2.375-.158 29.154 2.281 54.352 11.426 62.695 18.205 12.8 10.4 18.935 14.333 20.403 15-5.568-12.637-12.065-23.502-19.04-32.838 7.872-19.038 21.93-44.533 40.706-57.416 3.484-2.39 7.131-4.346 10.931-5.746Z" fill="rgba(213, 108, 12, 1)"/><path d="M106 142.837c89.6-153.6 260-90.667 334-40-20.081-13.75-115.5-40.5-159-18.5l.389.67C198.414 67.006 130.262 115.501 106 142.837Z" fill="#fff" fill-opacity=".2"/><path d="M440 102.837c-30.4 11.2-51 58-57 78-28.5-14-47-15-77-16 4-32.8-17.667-67.834-25-80.5 43.5-22 138.919 4.75 159 18.5Z" fill="#000" fill-opacity=".1"/><g fill="#fff" fill-opacity=".7"><path d="M306.177 163.217c-.729-11.968-40.65-41.148-81.177-36.38-54.121 6.367-86.5 45-89 50l-1.817-2.059C117.263 197.215 109.022 216.7 108.5 218c-8.842 22.018-11.961 46.275-12.583 70.624-.118 4.596-.056 9.202.195 13.803 38.09 6.472 56.129 47.303 60.388 66.91 0 0 11.333.666 14-1.5 14-7.334 38.9-37.4 26.5-99-6-28-2-50.294 47-85 20.571-14.571 46.253-19.198 70.313-18.702-2.679-.107-5.443-.203-8.313-.298.066-.54.125-1.08.177-1.62ZM324.305 165.632c29.154 2.281 54.352 11.426 62.695 18.205 12.8 10.4 18.935 14.333 20.403 15-5.568-12.637-12.065-23.502-19.04-32.838-2.331 5.638-4.12 10.71-5.328 14.72l-.035.118c-21.375-10.5-37.125-13.688-56.32-15.047-.786-.056-1.577-.108-2.375-.158Z"/></g></g><g transform="matrix(.85472 0 0 .85667 14 -12)"><path d="M148 160c101.868-11.2 202.992 37.833 229.48 60.5 9.575-11.2 25.372-24.667 36.382-26 2.681 6 7.021 21 8.138 24.5-16.085 0-33.509 19.833-42.126 33.5-66.874-58-160.09-58-254.874-58 8.617-19.5 15.979-27.833 23-34.5Z" fill="#FFC00C"/><mask id="accessoriesSailormoonCrown-a" style="mask-type:alpha" maskUnits="userSpaceOnUse" x="125" y="158" width="297" height="95"><path d="M148.5 160.5c101.868-11.2 202.492 37.333 228.98 60 9.575-11.2 25.372-24.667 36.382-26 2.681 6 7.021 21 8.138 24.5-16.085 0-33.509 19.833-42.126 33.5C304 190 218.5 197.5 125 194.5c8.617-19.5 16.479-27.333 23.5-34Z" fill="#FFC00C"/></mask><g fill="#FFD45B" mask="url(#accessoriesSailormoonCrown-a)"><path d="m343.971 240.5 22.381-36.621-6.068-9.44L333.918 232l10.053 8.5ZM388.491 246.5l28.243-55.5 13.883 3.439L396.15 249l-7.659-2.5ZM327.275 225.777 353.066 191l-4.93-2.981-25.033 33.784 4.172 3.974ZM275.995 215l30.637-36.5-14.361-7-35.903 41 19.627 2.5Z"/></g><g><ellipse cx="378.155" cy="232.5" rx="8.813" ry="13.5" fill="#FF3C15"/><mask id="accessoriesSailormoonCrown-b" style="mask-type:alpha" maskUnits="userSpaceOnUse" x="369" y="219" width="18" height="27"><ellipse cx="378.155" cy="232.5" rx="8.813" ry="13.5" fill="#FF3C15"/></mask><g mask="url(#accessoriesSailormoonCrown-b)"><path d="M388.142 226.977c-4.23 11.291-13.12 15.75-17.037 16.568 1.175 1.841 4.935 5.155 10.575 3.682 5.64-1.472 6.658-14.113 6.462-20.25Z" fill="#CB1414"/><ellipse rx="2.951" ry="4.888" transform="matrix(.94302 .33275 -.30774 .95147 375.98 225.86)" fill="#FF7256"/></g></g></g></g></svg>