<svg xmlns:dc="http://purl.org/dc/elements/1.1/" xmlns:cc="http://creativecommons.org/ns#" xmlns:rdf="http://www.w3.org/1999/02/22-rdf-syntax-ns#" xmlns:svg="http://www.w3.org/2000/svg" xmlns="http://www.w3.org/2000/svg" viewBox="0 0 480 480" fill="none"><metadata><rdf:RDF><cc:Work><dc:format>image/svg+xml</dc:format><dc:type rdf:resource="http://purl.org/dc/dcmitype/StillImage"/><dc:title>Custom Avatar</dc:title><dc:creator><cc:Agent><dc:title>Ashley Seo</dc:title></cc:Agent></dc:creator><dc:source>https://www.figma.com/community/file/881358461963645496</dc:source><cc:license rdf:resource="https://creativecommons.org/licenses/by/4.0/"/></cc:Work><cc:License rdf:about="https://creativecommons.org/licenses/by/4.0/"><cc:permits rdf:resource="https://creativecommons.org/ns#Reproduction"/><cc:permits rdf:resource="https://creativecommons.org/ns#Distribution"/><cc:permits rdf:resource="https://creativecommons.org/ns#DerivativeWorks"/><cc:requires rdf:resource="https://creativecommons.org/ns#Notice"/><cc:requires rdf:resource="https://creativecommons.org/ns#Attribution"/></cc:License></rdf:RDF></metadata><mask id="avatarsRadiusMask"><rect width="480" height="480" rx="0" ry="0" x="0" y="0" fill="#fff"/></mask><g mask="url(#avatarsRadiusMask)"><g transform="matrix(.85775 0 0 .85427 52 47)"><path d="M263.989 38.62s131.387 20.593 121.424 208.128c-.036.695 15.192 10.822 16.384 11.904 10.619 9.62 19.527 21.94 23.423 36.351 13.872 51.319-35.724 104.196-75.83 118.231-14.981 5.242-30.815 7.787-46.681 8.249-103.139 3.009-239.69-62.655-246.703-190.893a172.056 172.056 0 0 1-.195-13.802c.621-24.349 6.488-48.063 15.33-70.082-.004.001 57.398-142.617 192.848-108.085Z" fill="rgba(255, 228, 192, 1)"/><path d="M388.739 248.727c-1.423 3.492-2.844 7.955-3.241 10.507-1.694 10.947 2.045 22.252 8.54 30.378 6.168 7.716 14.976 12.72 23.506 14.607 2.88.637 6.367.964 9.416 1.067-3.204-31.703-28.973-50.725-38.221-56.559ZM203.534 332.051c24.406-5.26 39.558-31.017 33.844-57.531-5.714-26.514-30.13-43.744-54.535-38.484-24.405 5.259-39.558 31.016-33.844 57.53 5.714 26.514 30.13 43.744 54.535 38.485Z" fill="#DC2400" style="mix-blend-mode:multiply" opacity=".1"/><path opacity=".1" d="M323.014 257.889s20.842-19.864 36.977-1.188Z" fill="#000"/><g><path d="M128.679 356.869c-69.38 34.83-132.35-52.512-112.18-101.609 12.866-31.317 50.38-33.752 72.118-5.146 12.829 16.883 23.209 38.464 29.103 59.108" fill="rgba(255, 228, 192, 1)"/><path opacity=".1" d="M71.534 278.927c8.927 9.099 16.103 22.593 24.923 30.12-1.63-12.595-4.232-26.045-10.34-37.396-6.201-11.528-17.479-21.025-28.962-20.242-14.23.971-25.947 17.573-27.454 32.626.9-9.008 18.99-15.104 25.894-14.251 10.812 20.413 14.998 60.644 14.998 60.644 9.007-22.775 5.36-40.689.941-51.501Z" fill="#000"/></g></g><g transform="matrix(.85472 0 0 .855 19 -17)"><path d="M351.722 357.794c35.705 2.283 57.778 0 64.899 0 29.986-4.491 42.802 48.435 5.16 76.206-11.238 8.291-16.781 7-40.781 7-24.024 0-49.993 8.95-64.5 4.863-41.122-11.585-48.343-41.355-44.653-57.739 4.992-22.164 15.153-34.467 79.875-30.33Z" fill="#fff"/><mask id="mouthAwkwardSmile-a" style="mask-type:alpha" maskUnits="userSpaceOnUse" x="271" y="357" width="174" height="90"><path d="M351.722 357.794c35.705 2.283 57.778 0 64.899 0 29.986-4.491 42.802 48.435 5.16 76.206-11.238 8.291-16.781 7-40.781 7-24.024 0-49.993 8.95-64.5 4.863-41.122-11.585-48.343-41.355-44.653-57.739 4.992-22.164 15.153-34.467 79.875-30.33Z" fill="#fff"/></mask><g mask="url(#mouthAwkwardSmile-a)"><path fill-rule="evenodd" clip-rule="evenodd" d="m285.823 450.002 17.452-107.372 5.922.962-17.451 107.372-5.923-.962Zm77.403 14.257 4.276-109.584 5.996.234-4.277 109.584-5.995-.234Zm66.811-29.791-13.628-86.344 5.927-.935 13.627 86.343-5.926.936Z" fill="#D1D3D4"/></g></g><g transform="matrix(.85472 0 0 .855 19 -17)"><g fill="#2A1200"><path d="M401.884 284.77c3.898 1.79 9.27 3.915 14.555 5.154 1.59 3.122 2.498 6.841 2.489 10.269-.021 7.961-3.658 16.513-12.951 15.536-7.8-.82-9.785-10.978-9.772-15.979.016-6.111 2.179-11.988 5.679-14.98ZM296.2 292.531a30.443 30.443 0 0 0-.596 6.017c-.033 12.455 6.185 18.988 15.53 21.465 12.984 1.968 19.243-7.675 19.273-19.552.018-6.902-2.871-13.713-7.379-18.203-5.602 4.286-14.434 8.704-26.828 10.273Z"/></g><g fill="#71472D"><path d="M324.846 237.734c-13.715 2.017-26.145 11.324-32.392 24.184-2.014 4.146-1.067 10.067 3.235 12.662 3.977 2.403 9.612 1.736 11.766-2.707a38.274 38.274 0 0 1 2.14-3.864c.245-.386 1.016-1.177 1.177-1.684.128-.159.254-.317.387-.473a37.43 37.43 0 0 1 2.595-2.773 38.507 38.507 0 0 1 1.601-1.454c.173-.147.347-.29.525-.435.523-.272 1.065-.774 1.527-1.073a35.646 35.646 0 0 1 5.197-2.775c.161-.069.32-.134.483-.2.64-.199 1.274-.414 1.923-.591a36.248 36.248 0 0 1 4.203-.865c4.433-.651 7.487-6.186 6.167-10.783-1.46-5.057-5.785-7.866-10.534-7.169ZM425.206 260.439c-3.136-7.848-9.111-13.991-16.426-17.189-1.975-.862-4.58-.682-6.536.285-1.927.953-3.861 3.003-4.564 5.196-.729 2.277-.902 4.876.082 7.061.997 2.216 2.538 3.853 4.681 4.793.351.153.681.347 1.026.519a22.652 22.652 0 0 1 2.784 2.161 23.752 23.752 0 0 1 2.572 3.485c.229.478.482.944.682 1.441.861 2.148 2.65 3.977 4.681 4.793 1.944.781 4.613.769 6.536-.288 1.992-1.095 3.813-2.85 4.565-5.196.75-2.338.827-4.788-.083-7.061Z"/></g></g><g transform="matrix(.85472 0 0 .85667 18 -15)"><path d="M119.005.136A44.806 44.806 0 0 1 119-.5c0-20.71 16.789-37.5 37.5-37.5 14.27 0 26.679 7.971 33.016 19.703C196.394-26.664 206.824-32 218.5-32 239.211-32 256-15.21 256 5.5c0 1.944-.148 3.854-.433 5.718C274.365 13.245 289 29.163 289 48.5c0 19.154-14.361 34.954-32.903 37.221-3.195 44.264-37.269 79.101-78.834 79.101-25.584 0-48.331-13.199-62.785-33.672-2.571.557-5.24.85-7.978.85C85.79 132 69 115.211 69 94.5c0-11.972 5.61-22.634 14.346-29.5C74.61 58.134 69 47.472 69 35.5 69 14.79 85.79-2 106.5-2c4.385 0 8.594.753 12.505 2.136Z" fill="rgba(226, 186, 135, 1)"/><path d="M119.005.136A44.806 44.806 0 0 1 119-.5c0-20.71 16.789-37.5 37.5-37.5 14.27 0 26.679 7.971 33.016 19.703C196.394-26.664 206.824-32 218.5-32 239.211-32 256-15.21 256 5.5c0 1.944-.148 3.854-.433 5.718C274.365 13.245 289 29.163 289 48.5c0 19.154-14.361 34.954-32.903 37.221-3.195 44.264-37.269 79.101-78.834 79.101-25.584 0-48.331-13.199-62.785-33.672-2.571.557-5.24.85-7.978.85C85.79 132 69 115.211 69 94.5c0-11.972 5.61-22.634 14.346-29.5C74.61 58.134 69 47.472 69 35.5 69 14.79 85.79-2 106.5-2c4.385 0 8.594.753 12.505 2.136Z" fill="#fff" fill-opacity=".025"/><mask id="hairFroBun-a" style="mask-type:alpha" maskUnits="userSpaceOnUse" x="69" y="-38" width="220" height="203"><path d="M119.005.136A44.806 44.806 0 0 1 119-.5c0-20.71 16.789-37.5 37.5-37.5 14.27 0 26.679 7.971 33.016 19.703C196.394-26.664 206.824-32 218.5-32 239.211-32 256-15.21 256 5.5c0 1.944-.148 3.854-.433 5.718C274.365 13.245 289 29.163 289 48.5c0 19.154-14.361 34.954-32.903 37.221-3.195 44.264-37.269 79.101-78.834 79.101-25.584 0-48.331-13.199-62.785-33.672-2.571.557-5.24.85-7.978.85C85.79 132 69 115.211 69 94.5c0-11.972 5.61-22.634 14.346-29.5C74.61 58.134 69 47.472 69 35.5 69 14.79 85.79-2 106.5-2c4.385 0 8.594.753 12.505 2.136Z" fill="#451E00"/></mask><g fill="#000" fill-opacity=".3" mask="url(#hairFroBun-a)"><path d="M125 55.5c-30.8-.4-47.5-27.5-52-41L62 23 43 59.5l4.5 74.5L98 152.5c50-14.167 155.7-45.9 178.5-59.5 22.8-13.6 15.167-57.333 10.5-70-4 30.5-49 70.5-71 70s-91-3-96.5-14c-4.4-8.8 1.833-19.333 5.5-23.5ZM141 14.5c-5.2-8.8-16.5-13-21.5-14-3.928-13.928 6.997-31.284 14.84-40.538A14.925 14.925 0 0 1 137-43a65.26 65.26 0 0 0-2.66 2.962c-8.952 13.07.357 41.163 6.66 54.538ZM192.5-5c-.4-10.4-2.833-15.667-4-17 10.8-22 37.5-15.167 49.5-9-18.8-.4-38.167 17.167-45.5 26Z"/><path d="M259.5.5c-4 13.6-13.333 26.667-17.5 31.5 20.4-1.6 28.167-15.667 29.5-22.5l-12-9Z"/></g><g style="mix-blend-mode:multiply" opacity=".3"><path d="M313.417 157.974c6.199-8.401 8.265-12.502 14.981-12.502 6.716 0 13.845 10.902 21.697 12.502 9.815 2 18.08-3.001 25.829-2 7.749 1 4.649 6.001 9.815 17.502 5.166 11.502 13.948 15.003 16.531 18.503 2.583 3.501 0 10.502 2.066 15.503 2.067 5.001 8.266 7.001 9.816 11.502 1.549 4.5-1.55 6.001 1.549 12.502 2.48 5.201 7.233 9.835 9.299 11.502l-12.398-46.008c-17.771-48.808-63.54-65.01-84.204-67.011C220.948 99.965 130.028 213.149 98 273.493L121 318c6.027-1.834 14.401-5.501 21.427-13.503 8.782-10.001 5.682-34.005 8.782-44.007 3.099-10.001 8.265-15.002 25.829-22.503 17.564-7.501 16.531-21.504 25.313-32.505 8.782-11.002 27.895-5.001 36.161-12.002 8.265-7.001 1.033-17.003 12.398-26.005 11.365-9.001 28.412-4.5 37.711 0 9.298 4.501 17.047 1.001 24.796-9.501Z" fill="#351700"/></g><path d="M161.397 86.416C65.68 118.659 21.5 226.5 54.459 335c3.666-11.667 15.6-34.3 42-31.5 4.333 1 15.9 6 27.5 18 37.438-195 193.57-192.452 239.041-174 44.358 18 55 88 57.543 97.868 1.597 1.621 4.124.303 4.064-2.069C420.43 83.021 265.985 51.188 161.397 86.417Z" fill="rgba(226, 186, 135, 1)"/><g fill="#000" fill-opacity=".1"><path d="M232 81c21.333 9 67.8 31.4 83 49-7.667-16.333-35-49-83-49ZM208 91c4.333 15.333 15.2 48.4 24 58 .667-10.167-3.2-36-24-58ZM174.5 95c-1.5 16.667-.7 55.5 14.5 77.5-14.333-9.667-37.3-38.7-14.5-77.5ZM137 233.5c-22.4-54.8-1.667-106.833 11.5-126C94.9 174.3 111.833 235.667 127 258c-8-12.8-8.333-38-7.5-49 .4 11.6 11.833 21.167 17.5 24.5Z"/><path d="M115.5 130c-17.167 28.833-44.6 98.9-17 148.5-17.833-20-39.4-77.7 17-148.5ZM290 87c20.167 6 65.1 25.3 83.5 54.5C365 125.333 336.4 91.8 290 87Z"/></g></g><g transform="matrix(.85472 0 0 .85667 14 -12)"><path d="M258.843 292.134c3.704 15.828 11.171 30.272 24.278 35.244 29 11 71 3 77-3.5 2.122-2.299 5.056-10.411 7.698-20.381 17.08-9.597 31.813-4.398 36.709-1.033 1.264 7.779 2.622 13.965 3.623 15.81 3.046 5.612 24.364 12.518 39.083 3.022 14.72-9.497 15.227-66.905 12.436-72.948-3.395-7.348-55.67-3.848-57.864 9.927-1.482 4.203-.739 17.205.765 30.089-7.998-2.667-19.114-3.787-31.38.477 2.912-14.796 4.326-29.637 1.43-34.463C367.5 237 261 229.5 258.621 242.878c-2.543 6.958-3.729 21.602-1.924 36.885-43.616-5.56-115.271-14.567-131.069-16.23-5.974-.629-16.759.869-25.836 6.158-4.647 2.707-9.095 6.553-12.136 11.882-3.079 5.395-4.502 11.943-3.616 19.615l11.92-1.376c-.614-5.328.4-9.28 2.118-12.291 1.756-3.077 4.464-5.544 7.755-7.462 6.798-3.961 15.013-4.963 18.539-4.592 16.087 1.693 91.272 11.153 134.471 16.667Z" fill="#595757" style="mix-blend-mode:multiply"/><g style="mix-blend-mode:screen" opacity=".2"><mask id="accessoriesSunglasses-a" style="mask-type:alpha" maskUnits="userSpaceOnUse" x="83" y="236" width="378" height="97"><path d="M258.561 290.605C262.17 307.578 269.785 323.414 284 328c31 10 70.121 2.299 76.121-4.409 2.165-2.42 5.356-10.984 8.152-21.459 16.919-9.604 31.431-4.248 36.227-.815 1.272 8.11 2.642 14.574 3.651 16.492 3.046 5.791 24.364 12.918 39.083 3.118 14.72-9.8 15.227-69.044 12.436-75.281-13.028-4.454-40.606-7.572-57.864 10.246-1.489 4.358-.732 17.882.787 31.24-7.916-2.716-18.871-3.875-30.963.329 2.877-15.061 3.945-30.188-.13-35.461C358 238 283 231 259 241c-2.513 3.301-4.295 19.559-2.39 37.245-43.626-5.739-115.175-15.02-130.962-16.735-6.019-.654-16.837.904-25.927 6.37-4.658 2.801-9.087 6.762-12.105 12.22-3.048 5.513-4.455 12.195-3.579 20.033l11.926-1.333c-.624-5.577.407-9.732 2.155-12.893 1.779-3.218 4.506-5.771 7.786-7.743 6.785-4.08 14.967-5.102 18.448-4.724 16.053 1.744 90.968 11.47 134.209 17.165Z" fill="#595757" style="mix-blend-mode:multiply"/></mask><g mask="url(#accessoriesSunglasses-a)" fill="#fff"><path d="m303.819 223.625-65.717 90.892 18.021 13.756L340.725 221l-36.906 2.625ZM344.247 235.347l-77.3 96.032 2.949 22.336 94.919-111.375-20.568-6.993ZM474.801 231.607l-77.3 96.032 2.95 22.336L495.37 238.6l-20.569-6.993Z"/></g></g></g></g></svg>