<svg xmlns:dc="http://purl.org/dc/elements/1.1/" xmlns:cc="http://creativecommons.org/ns#" xmlns:rdf="http://www.w3.org/1999/02/22-rdf-syntax-ns#" xmlns:svg="http://www.w3.org/2000/svg" xmlns="http://www.w3.org/2000/svg" viewBox="0 0 480 480" fill="none"><metadata><rdf:RDF><cc:Work><dc:format>image/svg+xml</dc:format><dc:type rdf:resource="http://purl.org/dc/dcmitype/StillImage"/><dc:title>Custom Avatar</dc:title><dc:creator><cc:Agent><dc:title>Ashley Seo</dc:title></cc:Agent></dc:creator><dc:source>https://www.figma.com/community/file/881358461963645496</dc:source><cc:license rdf:resource="https://creativecommons.org/licenses/by/4.0/"/></cc:Work><cc:License rdf:about="https://creativecommons.org/licenses/by/4.0/"><cc:permits rdf:resource="https://creativecommons.org/ns#Reproduction"/><cc:permits rdf:resource="https://creativecommons.org/ns#Distribution"/><cc:permits rdf:resource="https://creativecommons.org/ns#DerivativeWorks"/><cc:requires rdf:resource="https://creativecommons.org/ns#Notice"/><cc:requires rdf:resource="https://creativecommons.org/ns#Attribution"/></cc:License></rdf:RDF></metadata><mask id="avatarsRadiusMask"><rect width="480" height="480" rx="0" ry="0" x="0" y="0" fill="#fff"/></mask><g mask="url(#avatarsRadiusMask)"><g transform="matrix(.85775 0 0 .85427 52 47)"><path d="M263.989 38.62s131.387 20.593 121.424 208.128c-.036.695 15.192 10.822 16.384 11.904 10.619 9.62 19.527 21.94 23.423 36.351 13.872 51.319-35.724 104.196-75.83 118.231-14.981 5.242-30.815 7.787-46.681 8.249-103.139 3.009-239.69-62.655-246.703-190.893a172.056 172.056 0 0 1-.195-13.802c.621-24.349 6.488-48.063 15.33-70.082-.004.001 57.398-142.617 192.848-108.085Z" fill="rgba(164, 117, 57, 1)"/><path d="M388.739 248.727c-1.423 3.492-2.844 7.955-3.241 10.507-1.694 10.947 2.045 22.252 8.54 30.378 6.168 7.716 14.976 12.72 23.506 14.607 2.88.637 6.367.964 9.416 1.067-3.204-31.703-28.973-50.725-38.221-56.559ZM203.534 332.051c24.406-5.26 39.558-31.017 33.844-57.531-5.714-26.514-30.13-43.744-54.535-38.484-24.405 5.259-39.558 31.016-33.844 57.53 5.714 26.514 30.13 43.744 54.535 38.485Z" fill="#DC2400" style="mix-blend-mode:multiply" opacity=".1"/><path opacity=".1" d="M323.014 257.889s20.842-19.864 36.977-1.188Z" fill="#000"/><g><path d="M128.679 356.869c-69.38 34.83-132.35-52.512-112.18-101.609 12.866-31.317 50.38-33.752 72.118-5.146 12.829 16.883 23.209 38.464 29.103 59.108" fill="rgba(164, 117, 57, 1)"/><path opacity=".1" d="M71.534 278.927c8.927 9.099 16.103 22.593 24.923 30.12-1.63-12.595-4.232-26.045-10.34-37.396-6.201-11.528-17.479-21.025-28.962-20.242-14.23.971-25.947 17.573-27.454 32.626.9-9.008 18.99-15.104 25.894-14.251 10.812 20.413 14.998 60.644 14.998 60.644 9.007-22.775 5.36-40.689.941-51.501Z" fill="#000"/></g></g><g transform="matrix(.85472 0 0 .855 19 -17)"><path d="M351.722 357.794c35.705 2.283 57.778 0 64.899 0 29.986-4.491 42.802 48.435 5.16 76.206-11.238 8.291-16.781 7-40.781 7-24.024 0-49.993 8.95-64.5 4.863-41.122-11.585-48.343-41.355-44.653-57.739 4.992-22.164 15.153-34.467 79.875-30.33Z" fill="#fff"/><mask id="mouthAwkwardSmile-a" style="mask-type:alpha" maskUnits="userSpaceOnUse" x="271" y="357" width="174" height="90"><path d="M351.722 357.794c35.705 2.283 57.778 0 64.899 0 29.986-4.491 42.802 48.435 5.16 76.206-11.238 8.291-16.781 7-40.781 7-24.024 0-49.993 8.95-64.5 4.863-41.122-11.585-48.343-41.355-44.653-57.739 4.992-22.164 15.153-34.467 79.875-30.33Z" fill="#fff"/></mask><g mask="url(#mouthAwkwardSmile-a)"><path fill-rule="evenodd" clip-rule="evenodd" d="m285.823 450.002 17.452-107.372 5.922.962-17.451 107.372-5.923-.962Zm77.403 14.257 4.276-109.584 5.996.234-4.277 109.584-5.995-.234Zm66.811-29.791-13.628-86.344 5.927-.935 13.627 86.343-5.926.936Z" fill="#D1D3D4"/></g></g><g transform="matrix(.85472 0 0 .855 19 -17)"><g fill="#2A1200"><path d="M401.884 284.77c3.898 1.79 9.27 3.915 14.555 5.154 1.59 3.122 2.498 6.841 2.489 10.269-.021 7.961-3.658 16.513-12.951 15.536-7.8-.82-9.785-10.978-9.772-15.979.016-6.111 2.179-11.988 5.679-14.98ZM296.2 292.531a30.443 30.443 0 0 0-.596 6.017c-.033 12.455 6.185 18.988 15.53 21.465 12.984 1.968 19.243-7.675 19.273-19.552.018-6.902-2.871-13.713-7.379-18.203-5.602 4.286-14.434 8.704-26.828 10.273Z"/></g><g fill="#71472D"><path d="M324.846 237.734c-13.715 2.017-26.145 11.324-32.392 24.184-2.014 4.146-1.067 10.067 3.235 12.662 3.977 2.403 9.612 1.736 11.766-2.707a38.274 38.274 0 0 1 2.14-3.864c.245-.386 1.016-1.177 1.177-1.684.128-.159.254-.317.387-.473a37.43 37.43 0 0 1 2.595-2.773 38.507 38.507 0 0 1 1.601-1.454c.173-.147.347-.29.525-.435.523-.272 1.065-.774 1.527-1.073a35.646 35.646 0 0 1 5.197-2.775c.161-.069.32-.134.483-.2.64-.199 1.274-.414 1.923-.591a36.248 36.248 0 0 1 4.203-.865c4.433-.651 7.487-6.186 6.167-10.783-1.46-5.057-5.785-7.866-10.534-7.169ZM425.206 260.439c-3.136-7.848-9.111-13.991-16.426-17.189-1.975-.862-4.58-.682-6.536.285-1.927.953-3.861 3.003-4.564 5.196-.729 2.277-.902 4.876.082 7.061.997 2.216 2.538 3.853 4.681 4.793.351.153.681.347 1.026.519a22.652 22.652 0 0 1 2.784 2.161 23.752 23.752 0 0 1 2.572 3.485c.229.478.482.944.682 1.441.861 2.148 2.65 3.977 4.681 4.793 1.944.781 4.613.769 6.536-.288 1.992-1.095 3.813-2.85 4.565-5.196.75-2.338.827-4.788-.083-7.061Z"/></g></g><g transform="matrix(.85472 0 0 .85667 18 -15)"><g fill="rgba(58, 26, 0, 1)"><path d="M274 104c88.8 2.4 132.5 65.5 141 98.5-55-8.667-191.546-34.459-210 15.5-41 111-15 243 0 297-55.2 4-123.667-15.667-151-26-5.5-6.5-1.724 18.963-10-104-14-208 102-250.5 140-267.5 30.4-13.6 73-16.167 90-13.5ZM438.5 486.5c-2.8-5.2-2.833-23.5-2.5-32-24.8 22.4-50.667 32.667-60.5 35 19.2 2.4 50-1 63-3Z"/></g><mask id="hairBangs-a" style="mask-type:alpha" maskUnits="userSpaceOnUse" x="42" y="103" width="397" height="413"><g fill="#2A1200"><path d="M274 104c88.8 2.4 125 57 132 84-55-8.667-182.546-19.959-201 30-41 111-15 243 0 297-55.2 4-123.667-15.667-151-26-5.5-6.5-1.724 18.963-10-104-14-208 102-250.5 140-267.5 30.4-13.6 73-16.167 90-13.5ZM438.5 486.5c-2.8-5.2-2.833-23.5-2.5-32-24.8 22.4-50.667 32.667-60.5 35 19.2 2.4 50-1 63-3Z"/></g></mask><g mask="url(#hairBangs-a)"><path d="M303.032 146.226s-12.295-3.681-26.51 7.568c0 0 6.905-12.81 14.277-16.653 0 0-28.055-1.676-49.946 25.328 0 0 10.575-26.439 27.121-34.816 0 0-21.064 3.521-30.336 12.022 0 0 1.479-15.613 12.403-22.267 0 0-18.339-9.491-34.69-5.635 0 0 31.365-9.761 41.865-8.816 19.673-3.587 46.362 6.308 46.362 6.308-6.509.351-13.619 5.975-13.619 5.975 17.198-.5 35.808 7.344 35.808 7.344-8.662-.194-15.011 5.908-15.011 5.908 19.252 4.015 32.866 16.595 32.866 16.595-4.703-3.758-19.84-2.166-19.84-2.166 9.55 4.988 18.765 17.022 18.765 17.022l-17.495-6.138s-8.695 28.627-12.393 33.973c0 0 4.644-24.516 1.118-31.972 0 0-17.924 20.014-33.671 33.73.002-.012 12.171-34.327 22.926-43.31Z" fill="#000" fill-opacity=".15"/></g><path d="M286.759 270.913c74.148 1.174 126.389-9.788 143.241-15.415-2.407-38.171-27.852-112.149-115-114.498-87.148-2.349-133.364 74.37-145 114.498 25.037 13.506 80.448 14.681 105.324 15.415l7.222-32.298 4.213 32.298Z" fill="rgba(58, 26, 0, 1)"/><g fill="#000" fill-opacity=".15"><path d="M193 172c-20 58.333-51.4 204-17 320-27.667-64.333-63-218.4 17-320ZM108 302c0-57.6 40-121.333 60-146-104.8 48-96.333 176.667-79 235-15.2-88.8 10.333-146.333 25-164-8 24.8-7.333 60.333-6 75ZM347 164c17.333 8.667 52.4 37.2 54 82 3.333-24.667-2.8-75.6-54-82ZM284 172c-6 10.333-17.8 36.8-17 60-5.333-11.333-9.4-39.2 17-60Z"/></g></g><g transform="matrix(.85472 0 0 .85667 14 -12)"><path d="M393.504 329.68c9.057-5.227 30.726-14.266 45.716-9.007 8.642 3.032 14.838 9.897 20.289 15.936 5.917 6.557 10.956 12.141 17.295 10.795.327-.069.591.38.332.592-5.759 4.713-25.951 19.987-39.429 20.653-16.294.805-24.2-7.013-36.423-19.101-1.204-1.19-2.449-2.422-3.749-3.691-3.857 10.221-18.039 23.718-50.414 39.944-59.034 29.587-97.681-2.886-116.343-24.922-.239-.282.302-.826.621-.641 7.161 4.156 15.27.48 35.771-8.975 9.389-4.33 17.818-8.772 25.661-12.905 19.317-10.179 35.078-18.484 52.873-18.634 20.015-.169 40.988 6.295 47.224 9.493.196.152.388.306.576.463Z" fill="#71472D"/><g fill="#5E351B"><path d="M339.639 337.541c10.958-4.856 32.552-1.14 41.979 1.325-32.984-1.041-42.373 11.169-68.833 25.342-21.169 11.338-41.857 5.349-49.555.938 27.734 8.879 62.71-21.534 76.409-27.605ZM366.589 355.4c-8.243 7.577-28.234 22.821-42.252 23.179 10.419-7.842 33.456-23.456 42.252-23.179ZM411.324 332.799c4.571-2.19 15.769-5.105 23.988.757 9.242 6.592 16.488 12.311 21.158 12.405.548-.05 1.041-.114 1.468-.185a4.766 4.766 0 0 1-1.468.185c-4.828.443-13.997-.144-21.379-5.408-8.219-5.862-19.269-7.612-23.767-7.754Z"/></g></g></g></svg>