<svg xmlns:dc="http://purl.org/dc/elements/1.1/" xmlns:cc="http://creativecommons.org/ns#" xmlns:rdf="http://www.w3.org/1999/02/22-rdf-syntax-ns#" xmlns:svg="http://www.w3.org/2000/svg" xmlns="http://www.w3.org/2000/svg" viewBox="0 0 480 480" fill="none"><metadata><rdf:RDF><cc:Work><dc:format>image/svg+xml</dc:format><dc:type rdf:resource="http://purl.org/dc/dcmitype/StillImage"/><dc:title>Custom Avatar</dc:title><dc:creator><cc:Agent><dc:title>Ashley Seo</dc:title></cc:Agent></dc:creator><dc:source>https://www.figma.com/community/file/881358461963645496</dc:source><cc:license rdf:resource="https://creativecommons.org/licenses/by/4.0/"/></cc:Work><cc:License rdf:about="https://creativecommons.org/licenses/by/4.0/"><cc:permits rdf:resource="https://creativecommons.org/ns#Reproduction"/><cc:permits rdf:resource="https://creativecommons.org/ns#Distribution"/><cc:permits rdf:resource="https://creativecommons.org/ns#DerivativeWorks"/><cc:requires rdf:resource="https://creativecommons.org/ns#Notice"/><cc:requires rdf:resource="https://creativecommons.org/ns#Attribution"/></cc:License></rdf:RDF></metadata><mask id="avatarsRadiusMask"><rect width="480" height="480" rx="0" ry="0" x="0" y="0" fill="#fff"/></mask><g mask="url(#avatarsRadiusMask)"><g transform="matrix(.85775 0 0 .85427 52 47)"><path d="M263.989 38.62s131.387 20.593 121.424 208.128c-.036.695 15.192 10.822 16.384 11.904 10.619 9.62 19.527 21.94 23.423 36.351 13.872 51.319-35.724 104.196-75.83 118.231-14.981 5.242-30.815 7.787-46.681 8.249-103.139 3.009-239.69-62.655-246.703-190.893a172.056 172.056 0 0 1-.195-13.802c.621-24.349 6.488-48.063 15.33-70.082-.004.001 57.398-142.617 192.848-108.085Z" fill="rgba(100, 61, 25, 1)"/><path d="M388.739 248.727c-1.423 3.492-2.844 7.955-3.241 10.507-1.694 10.947 2.045 22.252 8.54 30.378 6.168 7.716 14.976 12.72 23.506 14.607 2.88.637 6.367.964 9.416 1.067-3.204-31.703-28.973-50.725-38.221-56.559ZM203.534 332.051c24.406-5.26 39.558-31.017 33.844-57.531-5.714-26.514-30.13-43.744-54.535-38.484-24.405 5.259-39.558 31.016-33.844 57.53 5.714 26.514 30.13 43.744 54.535 38.485Z" fill="#DC2400" style="mix-blend-mode:multiply" opacity=".1"/><path opacity=".1" d="M323.014 257.889s20.842-19.864 36.977-1.188Z" fill="#000"/><g><path d="M128.679 356.869c-69.38 34.83-132.35-52.512-112.18-101.609 12.866-31.317 50.38-33.752 72.118-5.146 12.829 16.883 23.209 38.464 29.103 59.108" fill="rgba(100, 61, 25, 1)"/><path opacity=".1" d="M71.534 278.927c8.927 9.099 16.103 22.593 24.923 30.12-1.63-12.595-4.232-26.045-10.34-37.396-6.201-11.528-17.479-21.025-28.962-20.242-14.23.971-25.947 17.573-27.454 32.626.9-9.008 18.99-15.104 25.894-14.251 10.812 20.413 14.998 60.644 14.998 60.644 9.007-22.775 5.36-40.689.941-51.501Z" fill="#000"/></g></g><g transform="matrix(.85472 0 0 .855 19 -17)"><path fill-rule="evenodd" clip-rule="evenodd" d="M317 384a4 4 0 0 1 4-4h92a4 4 0 0 1 0 8h-92a4 4 0 0 1-4-4Z" fill="#592125"/></g><g transform="matrix(.85472 0 0 .855 19 -17)"><path d="M342.942 294.416c-.028 14.765-9.33 26.753-28.656 24.303-13.912-3.083-21.268-8.824-21.238-24.309.032-16.225 7.727-26.989 21.342-29.163 20.886-3.334 28.581 14.403 28.552 29.169ZM419.173 290.886c-.019 11.773-4.834 24.417-17.16 22.966-10.344-1.218-12.986-16.241-12.974-23.637.021-12.937 5.877-25.159 14.423-25.179 9.191-.021 15.73 14.077 15.711 25.85Z" fill="#2A1200"/><path d="M402.178 273.964c.257-.995 1.631-1.076 1.915-.114l2.627 8.888a.945.945 0 0 0 1.06.668l5.024-.771c.82-.125 1.384.75.955 1.48l-4.184 7.115a1.026 1.026 0 0 0-.105.813l2.583 8.743c.295.997-.952 1.782-1.672 1.052l-3.651-3.701c-.408-.413-1.095-.362-1.477.11l-5.609 6.928c-.622.768-1.819.327-1.75-.645l.736-10.31a.973.973 0 0 0-.272-.754l-5.548-5.623c-.569-.577-.207-1.595.613-1.721l5.169-.792c.41-.063.75-.373.855-.781l2.731-10.585ZM318.019 272.679c.339-.828 1.511-.829 1.851-.002l4.736 11.519a.999.999 0 0 0 1.052.612l9.659-1.237c.915-.117 1.487.962.877 1.653l-7.205 8.167a.998.998 0 0 0-.175 1.041l4.462 10.852c.376.916-.663 1.763-1.484 1.21l-8.383-5.651a1 1 0 0 0-1.201.063l-11.529 9.659c-.701.587-1.757.004-1.633-.902l1.679-12.339a.999.999 0 0 0-.432-.964l-9.03-6.087c-.765-.515-.483-1.704.432-1.821l9.842-1.26a.999.999 0 0 0 .798-.614l5.684-13.899Z" fill="#fff"/><g fill="#71472D"><path d="M331.172 233.546c-13.289-3.949-28.483-.745-39.566 8.287-3.573 2.912-5.209 8.68-2.401 12.846 2.594 3.855 7.986 5.624 11.811 2.502a38.29 38.29 0 0 1 3.569-2.602c.385-.247 1.418-.641 1.777-1.032.184-.09.364-.18.551-.266a37.327 37.327 0 0 1 3.521-1.422 38.14 38.14 0 0 1 2.064-.644c.219-.06.438-.117.66-.173.59-.027 1.292-.254 1.837-.33a35.797 35.797 0 0 1 5.883-.327c.175.005.346.013.521.022.665.089 1.33.161 1.994.274 1.41.241 2.8.58 4.176.986 4.294 1.278 9.396-2.456 10.136-7.181.807-5.202-1.933-9.571-6.533-10.94ZM422.688 243.735c-6.462-5.448-14.625-8.054-22.584-7.432-2.148.168-4.362 1.554-5.632 3.328-1.252 1.747-1.993 4.467-1.581 6.733.429 2.352 1.5 4.726 3.397 6.191 1.923 1.485 4.053 2.205 6.386 2.025.382-.03.764-.015 1.149-.025a22.67 22.67 0 0 1 3.474.595 23.87 23.87 0 0 1 3.91 1.864c.427.314.87.606 1.28.951 1.77 1.49 4.21 2.261 6.386 2.025 2.083-.226 4.432-1.493 5.631-3.332 1.242-1.903 2.022-4.309 1.581-6.732-.439-2.416-1.524-4.614-3.397-6.191Z"/></g></g><g transform="matrix(.85472 0 0 .85667 18 -15)"><g fill="rgba(233, 183, 41, 1)"><path d="M274 104c88.8 2.4 132.5 65.5 141 98.5-55-8.667-191.546-34.459-210 15.5-41 111-15 243 0 297-55.2 4-123.667-15.667-151-26-5.5-6.5-1.724 18.963-10-104-14-208 102-250.5 140-267.5 30.4-13.6 73-16.167 90-13.5ZM438.5 486.5c-2.8-5.2-2.833-23.5-2.5-32-24.8 22.4-50.667 32.667-60.5 35 19.2 2.4 50-1 63-3Z"/></g><mask id="hairBangs-a" style="mask-type:alpha" maskUnits="userSpaceOnUse" x="42" y="103" width="397" height="413"><g fill="#2A1200"><path d="M274 104c88.8 2.4 125 57 132 84-55-8.667-182.546-19.959-201 30-41 111-15 243 0 297-55.2 4-123.667-15.667-151-26-5.5-6.5-1.724 18.963-10-104-14-208 102-250.5 140-267.5 30.4-13.6 73-16.167 90-13.5ZM438.5 486.5c-2.8-5.2-2.833-23.5-2.5-32-24.8 22.4-50.667 32.667-60.5 35 19.2 2.4 50-1 63-3Z"/></g></mask><g mask="url(#hairBangs-a)"><path d="M303.032 146.226s-12.295-3.681-26.51 7.568c0 0 6.905-12.81 14.277-16.653 0 0-28.055-1.676-49.946 25.328 0 0 10.575-26.439 27.121-34.816 0 0-21.064 3.521-30.336 12.022 0 0 1.479-15.613 12.403-22.267 0 0-18.339-9.491-34.69-5.635 0 0 31.365-9.761 41.865-8.816 19.673-3.587 46.362 6.308 46.362 6.308-6.509.351-13.619 5.975-13.619 5.975 17.198-.5 35.808 7.344 35.808 7.344-8.662-.194-15.011 5.908-15.011 5.908 19.252 4.015 32.866 16.595 32.866 16.595-4.703-3.758-19.84-2.166-19.84-2.166 9.55 4.988 18.765 17.022 18.765 17.022l-17.495-6.138s-8.695 28.627-12.393 33.973c0 0 4.644-24.516 1.118-31.972 0 0-17.924 20.014-33.671 33.73.002-.012 12.171-34.327 22.926-43.31Z" fill="#000" fill-opacity=".15"/></g><path d="M286.759 270.913c74.148 1.174 126.389-9.788 143.241-15.415-2.407-38.171-27.852-112.149-115-114.498-87.148-2.349-133.364 74.37-145 114.498 25.037 13.506 80.448 14.681 105.324 15.415l7.222-32.298 4.213 32.298Z" fill="rgba(233, 183, 41, 1)"/><g fill="#000" fill-opacity=".15"><path d="M193 172c-20 58.333-51.4 204-17 320-27.667-64.333-63-218.4 17-320ZM108 302c0-57.6 40-121.333 60-146-104.8 48-96.333 176.667-79 235-15.2-88.8 10.333-146.333 25-164-8 24.8-7.333 60.333-6 75ZM347 164c17.333 8.667 52.4 37.2 54 82 3.333-24.667-2.8-75.6-54-82ZM284 172c-6 10.333-17.8 36.8-17 60-5.333-11.333-9.4-39.2 17-60Z"/></g></g><g transform="matrix(.85472 0 0 .85667 14 -12)"><path d="M192.247 102.862c11.166-17.088 55.767 14.712 77.251 33.085-29.211-1.83-45.2 37.231-50.404 56.335-9.22 9.038-24.507 10.684-30.717 10.695-3.363-26.251-7.297-83.027 3.87-100.115Z" fill="#A09B9B"/><mask id="accessoriesCatEars-a" style="mask-type:alpha" maskUnits="userSpaceOnUse" x="184" y="97" width="86" height="106"><path d="M192.247 102.862c11.166-17.088 55.767 14.712 77.251 33.085-29.211-1.83-45.2 37.231-50.404 56.335-9.22 9.038-24.507 10.684-30.717 10.695-3.363-26.251-7.297-83.027 3.87-100.115Z" fill="#A09B9B"/></mask><g fill="#C4C4C4" mask="url(#accessoriesCatEars-a)"><path d="M185.817 198.849c7.707-2.885 17.455-6.087 21.366-7.328l-25.057-8.913 3.691 16.241ZM179.496 172.988l-.585-10.759 17.89 6.221-17.305 4.538Z"/></g><path d="M269.498 135.947c-28.495 9.753-45.45 41.221-50.366 55.737-22.294-27.839-33.659-76.627-22.059-89.121 9.28-9.995 52.15 18.092 72.425 33.384Z" fill="#FEB3A4"/><g><mask id="accessoriesCatEars-b" style="mask-type:alpha" maskUnits="userSpaceOnUse" x="192" y="100" width="78" height="92"><path d="M269.498 135.947c-28.495 9.753-45.45 41.221-50.366 55.737-22.294-27.839-33.659-76.627-22.059-89.121 9.28-9.995 52.15 18.092 72.425 33.384Z" fill="#FEB3A4"/></mask><g mask="url(#accessoriesCatEars-b)"><path d="M233.434 126.476c-21.13-.363-17.591 44.169-13.18 66.48l55.193-56.035c-5.2-3.331-20.882-10.083-42.013-10.445Z" fill="#FFE7E2"/></g></g><g><mask id="accessoriesCatEars-c" style="mask-type:alpha" maskUnits="userSpaceOnUse" x="336" y="102" width="90" height="80"><path d="M407 182c-17.5-32.5-45-56.5-70.5-68.5l42-11.5 47.5 12.5-19 67.5Z" fill="#C4C4C4"/></mask><g mask="url(#accessoriesCatEars-c)"><path d="M387.523 106.854c13.339.49 14.327 38.367 13.207 57.709-10.576-17.987-37.303-13.45-49.343-9.678-8.363-2.225-15.258-10.704-17.716-14.384 12.392-11.42 40.512-34.137 53.852-33.647Z" fill="#A09B9B"/><mask id="accessoriesCatEars-d" style="mask-type:alpha" maskUnits="userSpaceOnUse" x="333" y="106" width="69" height="59"><path d="M387.523 106.854c13.339.49 14.327 38.367 13.207 57.709-10.576-17.987-37.303-13.45-49.343-9.678-8.363-2.225-15.258-10.704-17.716-14.384 12.392-11.42 40.512-34.137 53.852-33.647Z" fill="#A09B9B"/></mask><g fill="#C4C4C4" mask="url(#accessoriesCatEars-d)"><path d="M334.818 137.5c4.55 3.536 10.072 8.17 12.265 10.045l-5.234-18.066-7.031 8.021ZM345.838 124.466l5.392-4.21 3.812 12.847-9.204-8.637Z"/></g><path d="M401 172.5c-16.347-13.404-39.758-20.102-49.285-17.808 5.748-23.22 26.759-47.478 37.869-45.082 8.887 1.917 11.404 45.371 11.416 62.89Z" fill="#FEB3A4"/><g><mask id="accessoriesCatEars-e" style="mask-type:alpha" maskUnits="userSpaceOnUse" x="351" y="109" width="50" height="65"><path d="M401 174c-16.347-13.404-39.758-21.602-49.285-19.308 5.748-23.22 26.76-47.478 37.869-45.082 8.887 1.917 11.404 46.871 11.416 64.39Z" fill="#FEB3A4"/></mask><g mask="url(#accessoriesCatEars-e)"><path d="M392.319 141.259c-9.42-14.822-30.917 3.911-40.488 15.129l54.172 17.894c-.636-4.832-4.264-18.201-13.684-33.023Z" fill="#FFE7E2"/></g></g></g></g></g></g></svg>